Graduate-Regular.otf.ufo
<glyph name="numbersign" format="1">
  <advance width="650"/>
  <unicode hex="0023"/>
  <outline>
    <contour>
      <point x="324" y="0" type="line" name="hr00"/>
      <point x="401" y="0" type="line"/>
      <point x="455" y="200" type="line"/>
      <point x="555" y="200" type="line"/>
      <point x="574" y="269" type="line"/>
      <point x="474" y="269" type="line"/>
      <point x="532" y="482" type="line"/>
      <point x="632" y="482" type="line"/>
      <point x="651" y="551" type="line"/>
      <point x="551" y="551" type="line"/>
      <point x="606" y="750" type="line"/>
      <point x="529" y="750" type="line"/>
      <point x="474" y="551" type="line"/>
      <point x="271" y="551" type="line"/>
      <point x="326" y="750" type="line"/>
      <point x="249" y="750" type="line"/>
      <point x="194" y="551" type="line"/>
      <point x="95" y="551" type="line"/>
      <point x="76" y="482" type="line"/>
      <point x="175" y="482" type="line"/>
      <point x="117" y="269" type="line"/>
      <point x="18" y="269" type="line"/>
      <point x="-1" y="200" type="line"/>
      <point x="98" y="200" type="line"/>
      <point x="44" y="0" type="line"/>
      <point x="121" y="0" type="line"/>
      <point x="175" y="200" type="line"/>
      <point x="378" y="200" type="line"/>
    </contour>
    <contour>
      <point x="252" y="482" type="line"/>
      <point x="455" y="482" type="line"/>
      <point x="397" y="269" type="line"/>
      <point x="194" y="269" type="line"/>
    </contour>
  </outline>
</glyph>
<glyph name="percent" format="1">
  <advance width="940"/>
  <unicode hex="0025"/>
  <outline>
    <contour>
      <point x="634" y="0" type="line" name="hr00"/>
      <point x="806" y="0" type="line"/>
      <point x="870" y="69" type="line"/>
      <point x="870" y="383" type="line"/>
      <point x="806" y="452" type="line"/>
      <point x="634" y="452" type="line"/>
      <point x="569" y="383" type="line"/>
      <point x="569" y="69" type="line"/>
    </contour>
    <contour>
      <point x="664" y="68" type="line"/>
      <point x="637" y="95" type="line"/>
      <point x="637" y="357" type="line"/>
      <point x="664" y="384" type="line"/>
      <point x="776" y="384" type="line"/>
      <point x="803" y="357" type="line"/>
      <point x="803" y="95" type="line"/>
      <point x="776" y="68" type="line"/>
    </contour>
    <contour>
      <point x="135" y="298" type="line"/>
      <point x="307" y="298" type="line"/>
      <point x="371" y="367" type="line"/>
      <point x="371" y="681" type="line"/>
      <point x="307" y="750" type="line"/>
      <point x="135" y="750" type="line"/>
      <point x="70" y="681" type="line"/>
      <point x="70" y="367" type="line"/>
    </contour>
    <contour>
      <point x="165" y="366" type="line"/>
      <point x="138" y="393" type="line"/>
      <point x="138" y="655" type="line"/>
      <point x="165" y="682" type="line"/>
      <point x="277" y="682" type="line"/>
      <point x="304" y="655" type="line"/>
      <point x="304" y="393" type="line"/>
      <point x="277" y="366" type="line"/>
    </contour>
    <contour>
      <point x="279" y="-35" type="line"/>
      <point x="356" y="-35" type="line"/>
      <point x="661" y="784" type="line"/>
      <point x="584" y="784" type="line"/>
    </contour>
  </outline>
</glyph>
<glyph name="quotesingle" format="1">
  <advance width="240"/>
  <unicode hex="0027"/>
  <outline>
    <contour>
      <point x="70" y="800" type="line" name="hr00"/>
      <point x="70" y="700" type="line"/>
      <point x="100" y="550" type="line"/>
      <point x="140" y="550" type="line"/>
      <point x="170" y="700" type="line"/>
      <point x="170" y="800" type="line"/>
    </contour>
  </outline>
</glyph>
<glyph name="parenright" format="1">
  <advance width="352"/>
  <unicode hex="0029"/>
  <outline>
    <contour>
      <point x="264" y="110" type="line" name="hr00"/>
      <point x="264" y="640" type="line"/>
      <point x="160" y="850" type="line"/>
      <point x="30" y="850" type="line"/>
      <point x="30" y="764" type="line"/>
      <point x="100" y="764" type="line"/>
      <point x="172" y="611" type="line"/>
      <point x="172" y="139" type="line"/>
      <point x="101" y="-14" type="line"/>
      <point x="30" y="-14" type="line"/>
      <point x="30" y="-100" type="line"/>
      <point x="160" y="-100" type="line"/>
    </contour>
  </outline>
</glyph>
<glyph name="asterisk" format="1">
  <advance width="467"/>
  <unicode hex="002A"/>
  <outline>
    <contour>
      <point x="40" y="630" type="line" name="hr00"/>
      <point x="126" y="602" type="line"/>
      <point x="194" y="596" type="line"/>
      <point x="142" y="550" type="line"/>
      <point x="90" y="478" type="line"/>
      <point x="154" y="431" type="line"/>
      <point x="207" y="504" type="line"/>
      <point x="234" y="567" type="line"/>
      <point x="262" y="503" type="line"/>
      <point x="314" y="432" type="line"/>
      <point x="379" y="478" type="line"/>
      <point x="326" y="551" type="line"/>
      <point x="274" y="596" type="line"/>
      <point x="343" y="603" type="line"/>
      <point x="427" y="630" type="line"/>
      <point x="403" y="706" type="line"/>
      <point x="318" y="679" type="line"/>
      <point x="258" y="643" type="line"/>
      <point x="274" y="710" type="line"/>
      <point x="274" y="800" type="line"/>
      <point x="194" y="800" type="line"/>
      <point x="194" y="710" type="line"/>
      <point x="209" y="643" type="line"/>
      <point x="150" y="678" type="line"/>
      <point x="65" y="706" type="line"/>
    </contour>
  </outline>
</glyph>
<glyph name="plus" format="1">
  <advance width="650"/>
  <unicode hex="002B"/>
  <outline>
    <contour>
      <point x="285" y="165" type="line" name="hr00"/>
      <point x="365" y="165" type="line"/>
      <point x="365" y="335" type="line"/>
      <point x="535" y="335" type="line"/>
      <point x="535" y="415" type="line"/>
      <point x="365" y="415" type="line"/>
      <point x="365" y="585" type="line"/>
      <point x="285" y="585" type="line"/>
      <point x="285" y="415" type="line"/>
      <point x="115" y="415" type="line"/>
      <point x="115" y="335" type="line"/>
      <point x="285" y="335" type="line"/>
    </contour>
  </outline>
</glyph>
<glyph name="zero" format="1">
  <advance width="650"/>
  <unicode hex="0030"/>
  <outline>
    <contour>
      <point x="184" y="0" type="line" name="hr00"/>
      <point x="466" y="0" type="line"/>
      <point x="570" y="110" type="line"/>
      <point x="570" y="640" type="line"/>
      <point x="466" y="750" type="line"/>
      <point x="184" y="750" type="line"/>
      <point x="80" y="640" type="line"/>
      <point x="80" y="110" type="line"/>
    </contour>
    <contour>
      <point x="223" y="86" type="line"/>
      <point x="167" y="144" type="line"/>
      <point x="167" y="606" type="line"/>
      <point x="224" y="664" type="line"/>
      <point x="427" y="664" type="line"/>
      <point x="483" y="606" type="line"/>
      <point x="483" y="144" type="line"/>
      <point x="426" y="86" type="line"/>
    </contour>
    <contour>
      <point x="275" y="435" type="line"/>
      <point x="275" y="315" type="line"/>
      <point x="375" y="315" type="line"/>
      <point x="375" y="435" type="line"/>
    </contour>
  </outline>
</glyph>
<glyph name="one" format="1">
  <advance width="650"/>
  <unicode hex="0031"/>
  <outline>
    <contour>
      <point x="309" y="750" type="line" name="hr00"/>
      <point x="107" y="650" type="line"/>
      <point x="146" y="572" type="line"/>
      <point x="309" y="653" type="line"/>
      <point x="309" y="80" type="line"/>
      <point x="159" y="80" type="line"/>
      <point x="159" y="0" type="line"/>
      <point x="551" y="0" type="line"/>
      <point x="551" y="80" type="line"/>
      <point x="401" y="80" type="line"/>
      <point x="401" y="750" type="line"/>
    </contour>
  </outline>
</glyph>
<glyph name="two" format="1">
  <advance width="650"/>
  <unicode hex="0032"/>
  <outline>
    <contour>
      <point x="545" y="0" type="line"/>
      <point x="545" y="196" type="line"/>
      <point x="465" y="196" type="line"/>
      <point x="465" y="80" type="line"/>
      <point x="197" y="80" type="line"/>
      <point x="530" y="444" type="line" name="hr01"/>
      <point x="530" y="640" type="line"/>
      <point x="426" y="750" type="line"/>
      <point x="194" y="750" type="line"/>
      <point x="90" y="640" type="line"/>
      <point x="90" y="514" type="line"/>
      <point x="173" y="514" type="line"/>
      <point x="173" y="602" type="line"/>
      <point x="233" y="664" type="line"/>
      <point x="386" y="664" type="line"/>
      <point x="438" y="611" type="line"/>
      <point x="438" y="473" type="line"/>
      <point x="85" y="80" type="line" name="hr02"/>
      <point x="85" y="0" type="line"/>
    </contour>
  </outline>
</glyph>
<glyph name="eight" format="1">
  <advance width="650"/>
  <unicode hex="0038"/>
  <outline>
    <contour>
      <point x="90" y="110" type="line" name="hr00"/>
      <point x="194" y="0" type="line"/>
      <point x="456" y="0" type="line"/>
      <point x="560" y="110" type="line"/>
      <point x="560" y="317" type="line"/>
      <point x="495" y="385" type="line"/>
      <point x="551" y="444" type="line"/>
      <point x="551" y="640" type="line"/>
      <point x="447" y="750" type="line"/>
      <point x="204" y="750" type="line"/>
      <point x="100" y="640" type="line"/>
      <point x="100" y="444" type="line"/>
      <point x="155" y="386" type="line"/>
      <point x="90" y="317" type="line"/>
    </contour>
    <contour>
      <point x="420" y="337" type="line"/>
      <point x="468" y="288" type="line"/>
      <point x="468" y="139" type="line"/>
      <point x="417" y="86" type="line"/>
      <point x="234" y="86" type="line"/>
      <point x="182" y="139" type="line"/>
      <point x="182" y="288" type="line"/>
      <point x="230" y="337" type="line"/>
    </contour>
    <contour>
      <point x="192" y="473" type="line"/>
      <point x="192" y="611" type="line"/>
      <point x="244" y="664" type="line"/>
      <point x="407" y="664" type="line"/>
      <point x="459" y="611" type="line"/>
      <point x="459" y="473" type="line"/>
      <point x="410" y="423" type="line"/>
      <point x="241" y="423" type="line"/>
    </contour>
  </outline>
</glyph>
<glyph name="nine" format="1">
  <advance width="650"/>
  <unicode hex="0039"/>
  <outline>
    <contour>
      <point x="550" y="640" type="line" name="hr00"/>
      <point x="446" y="750" type="line"/>
      <point x="204" y="750" type="line"/>
      <point x="100" y="640" type="line"/>
      <point x="100" y="423" type="line"/>
      <point x="201" y="317" type="line"/>
      <point x="463" y="317" type="line"/>
      <point x="463" y="144" type="line"/>
      <point x="406" y="86" type="line"/>
      <point x="243" y="86" type="line"/>
      <point x="183" y="148" type="line"/>
      <point x="183" y="236" type="line"/>
      <point x="100" y="236" type="line"/>
      <point x="100" y="110" type="line"/>
      <point x="204" y="0" type="line"/>
      <point x="446" y="0" type="line"/>
      <point x="550" y="110" type="line"/>
    </contour>
    <contour>
      <point x="246" y="397" type="line"/>
      <point x="192" y="452" type="line"/>
      <point x="192" y="611" type="line"/>
      <point x="243" y="664" type="line"/>
      <point x="406" y="664" type="line"/>
      <point x="463" y="606" type="line"/>
      <point x="463" y="397" type="line"/>
    </contour>
  </outline>
</glyph>
<glyph name="at" format="1">
  <advance width="950"/>
  <unicode hex="0040"/>
  <outline>
    <contour>
      <point x="769" y="-20" type="line" name="hr00"/>
      <point x="239" y="-20" type="line"/>
      <point x="180" y="41" type="line"/>
      <point x="180" y="609" type="line"/>
      <point x="239" y="670" type="line"/>
      <point x="711" y="670" type="line"/>
      <point x="770" y="608" type="line"/>
      <point x="770" y="335" type="line"/>
      <point x="711" y="274" type="line"/>
      <point x="657" y="274" type="line"/>
      <point x="554" y="600" type="line"/>
      <point x="427" y="600" type="line"/>
      <point x="253" y="50" type="line"/>
      <point x="345" y="50" type="line"/>
      <point x="390" y="194" type="line"/>
      <point x="590" y="194" type="line"/>
      <point x="636" y="50" type="line"/>
      <point x="728" y="50" type="line"/>
      <point x="682" y="194" type="line"/>
      <point x="746" y="194" type="line"/>
      <point x="850" y="304" type="line"/>
      <point x="850" y="640" type="line"/>
      <point x="746" y="750" type="line"/>
      <point x="204" y="750" type="line"/>
      <point x="100" y="640" type="line"/>
      <point x="100" y="10" type="line"/>
      <point x="204" y="-100" type="line"/>
      <point x="769" y="-100" type="line"/>
    </contour>
    <contour>
      <point x="490" y="510" type="line"/>
      <point x="565" y="274" type="line"/>
      <point x="416" y="274" type="line"/>
    </contour>
  </outline>
</glyph>
<glyph name="E" format="1">
  <advance width="636"/>
  <unicode hex="0045"/>
  <outline>
    <contour>
      <point x="80" y="750" type="line" name="hr00"/>
      <point x="80" y="670" type="line"/>
      <point x="150" y="670" type="line"/>
      <point x="150" y="80" type="line"/>
      <point x="80" y="80" type="line"/>
      <point x="80" y="0" type="line"/>
      <point x="556" y="0" type="line"/>
      <point x="556" y="196" type="line"/>
      <point x="476" y="196" type="line"/>
      <point x="476" y="80" type="line"/>
      <point x="242" y="80" type="line"/>
      <point x="242" y="335" type="line"/>
      <point x="476" y="335" type="line"/>
      <point x="476" y="415" type="line"/>
      <point x="242" y="415" type="line"/>
      <point x="242" y="670" type="line"/>
      <point x="476" y="670" type="line"/>
      <point x="476" y="554" type="line"/>
      <point x="556" y="554" type="line"/>
      <point x="556" y="750" type="line"/>
    </contour>
  </outline>
</glyph>
<glyph name="I" format="1">
  <advance width="392"/>
  <unicode hex="0049"/>
  <outline>
    <contour>
      <point x="70" y="80" type="line" name="hr00"/>
      <point x="70" y="0" type="line"/>
      <point x="322" y="0" type="line"/>
      <point x="322" y="80" type="line"/>
      <point x="242" y="80" type="line"/>
      <point x="242" y="670" type="line"/>
      <point x="322" y="670" type="line"/>
      <point x="322" y="750" type="line"/>
      <point x="70" y="750" type="line"/>
      <point x="70" y="670" type="line"/>
      <point x="150" y="670" type="line"/>
      <point x="150" y="80" type="line"/>
    </contour>
  </outline>
</glyph>
<glyph name="J" format="1">
  <advance width="540"/>
  <unicode hex="004A"/>
  <outline>
    <contour>
      <point x="163" y="86" type="line" name="hr00"/>
      <point x="100" y="151" type="line"/>
      <point x="100" y="286" type="line"/>
      <point x="20" y="286" type="line"/>
      <point x="20" y="110" type="line"/>
      <point x="124" y="0" type="line"/>
      <point x="316" y="0" type="line"/>
      <point x="420" y="110" type="line"/>
      <point x="420" y="670" type="line"/>
      <point x="480" y="670" type="line"/>
      <point x="480" y="750" type="line"/>
      <point x="258" y="750" type="line"/>
      <point x="258" y="670" type="line"/>
      <point x="328" y="670" type="line"/>
      <point x="328" y="139" type="line"/>
      <point x="276" y="86" type="line"/>
    </contour>
  </outline>
</glyph>
<glyph name="L" format="1">
  <advance width="556"/>
  <unicode hex="004C"/>
  <outline>
    <contour>
      <point x="80" y="750" type="line" name="hr00"/>
      <point x="80" y="670" type="line"/>
      <point x="150" y="670" type="line"/>
      <point x="150" y="80" type="line"/>
      <point x="80" y="80" type="line"/>
      <point x="80" y="0" type="line"/>
      <point x="536" y="0" type="line"/>
      <point x="536" y="196" type="line"/>
      <point x="460" y="196" type="line"/>
      <point x="460" y="80" type="line"/>
      <point x="242" y="80" type="line"/>
      <point x="242" y="670" type="line"/>
      <point x="322" y="670" type="line"/>
      <point x="322" y="750" type="line"/>
    </contour>
  </outline>
</glyph>
<glyph name="N" format="1">
  <advance width="812"/>
  <unicode hex="004E"/>
  <outline>
    <contour>
      <point x="534" y="0" type="line" name="hr00"/>
      <point x="672" y="0" type="line"/>
      <point x="672" y="670" type="line"/>
      <point x="742" y="670" type="line"/>
      <point x="742" y="750" type="line"/>
      <point x="510" y="750" type="line"/>
      <point x="510" y="670" type="line"/>
      <point x="580" y="670" type="line"/>
      <point x="580" y="113" type="line"/>
      <point x="288" y="750" type="line"/>
      <point x="80" y="750" type="line"/>
      <point x="80" y="670" type="line"/>
      <point x="150" y="670" type="line"/>
      <point x="150" y="80" type="line"/>
      <point x="80" y="80" type="line"/>
      <point x="80" y="0" type="line"/>
      <point x="312" y="0" type="line"/>
      <point x="312" y="80" type="line"/>
      <point x="242" y="80" type="line"/>
      <point x="242" y="636" type="line"/>
    </contour>
  </outline>
</glyph>
<glyph name="P" format="1">
  <advance width="624"/>
  <unicode hex="0050"/>
  <outline>
    <contour>
      <point x="80" y="750" type="line" name="hr00"/>
      <point x="80" y="670" type="line"/>
      <point x="150" y="670" type="line"/>
      <point x="150" y="80" type="line"/>
      <point x="80" y="80" type="line"/>
      <point x="80" y="0" type="line"/>
      <point x="322" y="0" type="line"/>
      <point x="322" y="80" type="line"/>
      <point x="242" y="80" type="line"/>
      <point x="242" y="300" type="line"/>
      <point x="480" y="300" type="line"/>
      <point x="584" y="410" type="line"/>
      <point x="584" y="640" type="line"/>
      <point x="480" y="750" type="line"/>
    </contour>
    <contour>
      <point x="440" y="386" type="line"/>
      <point x="242" y="386" type="line"/>
      <point x="242" y="664" type="line"/>
      <point x="441" y="664" type="line"/>
      <point x="498" y="605" type="line"/>
      <point x="498" y="445" type="line"/>
    </contour>
  </outline>
</glyph>
<glyph name="R" format="1">
  <advance width="699"/>
  <unicode hex="0052"/>
  <outline>
    <contour>
      <point x="80" y="750" type="line" name="hr00"/>
      <point x="80" y="670" type="line"/>
      <point x="150" y="670" type="line"/>
      <point x="150" y="80" type="line"/>
      <point x="80" y="80" type="line"/>
      <point x="80" y="0" type="line"/>
      <point x="302" y="0" type="line"/>
      <point x="302" y="80" type="line"/>
      <point x="242" y="80" type="line"/>
      <point x="242" y="310" type="line"/>
      <point x="383" y="310" type="line"/>
      <point x="490" y="80" type="line"/>
      <point x="451" y="80" type="line"/>
      <point x="451" y="0" type="line"/>
      <point x="639" y="0" type="line"/>
      <point x="639" y="80" type="line"/>
      <point x="587" y="80" type="line"/>
      <point x="480" y="310" type="line"/>
      <point x="584" y="420" type="line"/>
      <point x="584" y="640" type="line"/>
      <point x="480" y="750" type="line"/>
    </contour>
    <contour>
      <point x="440" y="396" type="line"/>
      <point x="242" y="396" type="line"/>
      <point x="242" y="664" type="line"/>
      <point x="441" y="664" type="line"/>
      <point x="498" y="605" type="line"/>
      <point x="498" y="455" type="line"/>
    </contour>
  </outline>
</glyph>
<glyph name="W" format="1">
  <advance width="1026"/>
  <unicode hex="0057"/>
  <outline>
    <contour>
      <point x="240" y="0" type="line" name="hr00"/>
      <point x="363" y="0" type="line"/>
      <point x="513" y="579" type="line"/>
      <point x="663" y="0" type="line"/>
      <point x="786" y="0" type="line"/>
      <point x="959" y="670" type="line"/>
      <point x="1006" y="670" type="line"/>
      <point x="1006" y="750" type="line"/>
      <point x="794" y="750" type="line"/>
      <point x="794" y="670" type="line"/>
      <point x="867" y="670" type="line"/>
      <point x="722" y="110" type="line"/>
      <point x="577" y="670" type="line"/>
      <point x="621" y="670" type="line"/>
      <point x="621" y="750" type="line"/>
      <point x="405" y="750" type="line"/>
      <point x="405" y="670" type="line"/>
      <point x="448" y="670" type="line"/>
      <point x="303" y="110" type="line"/>
      <point x="158" y="670" type="line"/>
      <point x="232" y="670" type="line"/>
      <point x="232" y="750" type="line"/>
      <point x="20" y="750" type="line"/>
      <point x="20" y="670" type="line"/>
      <point x="66" y="670" type="line"/>
    </contour>
  </outline>
</glyph>
<glyph name="Y" format="1">
  <advance width="607"/>
  <unicode hex="0059"/>
  <outline>
    <contour>
      <point x="440" y="0" type="line" name="hr00"/>
      <point x="440" y="80" type="line"/>
      <point x="350" y="80" type="line"/>
      <point x="350" y="237" type="line"/>
      <point x="536" y="670" type="line"/>
      <point x="587" y="670" type="line"/>
      <point x="587" y="750" type="line"/>
      <point x="375" y="750" type="line"/>
      <point x="375" y="670" type="line"/>
      <point x="448" y="670" type="line"/>
      <point x="303" y="333" type="line"/>
      <point x="158" y="670" type="line"/>
      <point x="232" y="670" type="line"/>
      <point x="232" y="750" type="line"/>
      <point x="20" y="750" type="line"/>
      <point x="20" y="670" type="line"/>
      <point x="70" y="670" type="line"/>
      <point x="258" y="234" type="line"/>
      <point x="258" y="80" type="line"/>
      <point x="168" y="80" type="line"/>
      <point x="168" y="0" type="line"/>
    </contour>
  </outline>
</glyph>
<glyph name="bracketleft" format="1">
  <advance width="352"/>
  <unicode hex="005B"/>
  <outline>
    <contour>
      <point x="120" y="-100" type="line" name="hr00"/>
      <point x="322" y="-100" type="line"/>
      <point x="322" y="-40" type="line"/>
      <point x="212" y="-20" type="line"/>
      <point x="212" y="770" type="line"/>
      <point x="322" y="790" type="line"/>
      <point x="322" y="850" type="line"/>
      <point x="120" y="850" type="line"/>
    </contour>
  </outline>
</glyph>
<glyph name="backslash" format="1">
  <advance width="392"/>
  <unicode hex="005C"/>
  <outline>
    <contour>
      <point x="82" y="830" type="line" name="hr00"/>
      <point x="5" y="830" type="line"/>
      <point x="310" y="-80" type="line"/>
      <point x="387" y="-80" type="line"/>
    </contour>
  </outline>
</glyph>
<glyph name="asciicircum" format="1">
  <advance width="650"/>
  <unicode hex="005E"/>
  <outline>
    <contour>
      <point x="365" y="750" type="line" name="hr00"/>
      <point x="285" y="750" type="line"/>
      <point x="145" y="499" type="line"/>
      <point x="225" y="499" type="line"/>
      <point x="325" y="678" type="line"/>
      <point x="425" y="499" type="line"/>
      <point x="505" y="499" type="line"/>
    </contour>
  </outline>
</glyph>
<glyph name="underscore" format="1">
  <advance width="621"/>
  <unicode hex="005F"/>
  <outline>
    <contour>
      <point x="50" y="0" type="line" name="hr00"/>
      <point x="50" y="-80" type="line"/>
      <point x="571" y="-80" type="line"/>
      <point x="571" y="0" type="line"/>
    </contour>
  </outline>
</glyph>
<glyph name="a" format="1">
  <advance width="657"/>
  <unicode hex="0061"/>
  <outline>
    <contour>
      <point x="430" y="0" type="line" name="hr00"/>
      <point x="642" y="0" type="line"/>
      <point x="642" y="80" type="line"/>
      <point x="588" y="80" type="line"/>
      <point x="419" y="570" type="line"/>
      <point x="462" y="570" type="line"/>
      <point x="462" y="650" type="line"/>
      <point x="195" y="650" type="line"/>
      <point x="195" y="570" type="line"/>
      <point x="237" y="570" type="line"/>
      <point x="68" y="80" type="line"/>
      <point x="15" y="80" type="line"/>
      <point x="15" y="0" type="line"/>
      <point x="227" y="0" type="line"/>
      <point x="227" y="80" type="line"/>
      <point x="160" y="80" type="line"/>
      <point x="203" y="204" type="line"/>
      <point x="453" y="204" type="line"/>
      <point x="496" y="80" type="line"/>
      <point x="430" y="80" type="line"/>
    </contour>
    <contour>
      <point x="328" y="567" type="line"/>
      <point x="426" y="284" type="line"/>
      <point x="230" y="284" type="line"/>
    </contour>
  </outline>
</glyph>
<glyph name="c" format="1">
  <advance width="600"/>
  <unicode hex="0063"/>
  <outline>
    <contour>
      <point x="223" y="86" type="line" name="hr00"/>
      <point x="172" y="139" type="line"/>
      <point x="172" y="511" type="line"/>
      <point x="224" y="564" type="line"/>
      <point x="397" y="564" type="line"/>
      <point x="460" y="499" type="line"/>
      <point x="460" y="414" type="line"/>
      <point x="540" y="414" type="line"/>
      <point x="540" y="540" type="line"/>
      <point x="436" y="650" type="line"/>
      <point x="184" y="650" type="line"/>
      <point x="80" y="540" type="line"/>
      <point x="80" y="110" type="line"/>
      <point x="184" y="0" type="line"/>
      <point x="436" y="0" type="line"/>
      <point x="540" y="110" type="line"/>
      <point x="540" y="236" type="line"/>
      <point x="460" y="236" type="line"/>
      <point x="460" y="151" type="line"/>
      <point x="396" y="86" type="line"/>
    </contour>
  </outline>
</glyph>
<glyph name="f" format="1">
  <advance width="596"/>
  <unicode hex="0066"/>
  <outline>
    <contour>
      <point x="80" y="650" type="line" name="hr00"/>
      <point x="80" y="570" type="line"/>
      <point x="150" y="570" type="line"/>
      <point x="150" y="80" type="line"/>
      <point x="80" y="80" type="line"/>
      <point x="80" y="0" type="line"/>
      <point x="322" y="0" type="line"/>
      <point x="322" y="80" type="line"/>
      <point x="242" y="80" type="line"/>
      <point x="242" y="285" type="line"/>
      <point x="476" y="285" type="line"/>
      <point x="476" y="365" type="line"/>
      <point x="242" y="365" type="line"/>
      <point x="242" y="570" type="line"/>
      <point x="476" y="570" type="line"/>
      <point x="476" y="454" type="line"/>
      <point x="556" y="454" type="line"/>
      <point x="556" y="650" type="line"/>
    </contour>
  </outline>
</glyph>
<glyph name="m" format="1">
  <advance width="946"/>
  <unicode hex="006D"/>
  <outline>
    <contour>
      <point x="429" y="80" type="line" name="hr00"/>
      <point x="517" y="80" type="line"/>
      <point x="704" y="537" type="line"/>
      <point x="704" y="80" type="line"/>
      <point x="634" y="80" type="line"/>
      <point x="634" y="0" type="line"/>
      <point x="866" y="0" type="line"/>
      <point x="866" y="80" type="line"/>
      <point x="796" y="80" type="line"/>
      <point x="796" y="570" type="line"/>
      <point x="866" y="570" type="line"/>
      <point x="866" y="650" type="line"/>
      <point x="662" y="650" type="line"/>
      <point x="473" y="177" type="line"/>
      <point x="284" y="650" type="line"/>
      <point x="80" y="650" type="line"/>
      <point x="80" y="570" type="line"/>
      <point x="150" y="570" type="line"/>
      <point x="150" y="80" type="line"/>
      <point x="80" y="80" type="line"/>
      <point x="80" y="0" type="line"/>
      <point x="312" y="0" type="line"/>
      <point x="312" y="80" type="line"/>
      <point x="242" y="80" type="line"/>
      <point x="242" y="537" type="line"/>
    </contour>
  </outline>
</glyph>
<glyph name="p" format="1">
  <advance width="624"/>
  <unicode hex="0070"/>
  <outline>
    <contour>
      <point x="80" y="650" type="line" name="hr00"/>
      <point x="80" y="570" type="line"/>
      <point x="150" y="570" type="line"/>
      <point x="150" y="80" type="line"/>
      <point x="80" y="80" type="line"/>
      <point x="80" y="0" type="line"/>
      <point x="322" y="0" type="line"/>
      <point x="322" y="80" type="line"/>
      <point x="242" y="80" type="line"/>
      <point x="242" y="220" type="line"/>
      <point x="480" y="220" type="line"/>
      <point x="584" y="330" type="line"/>
      <point x="584" y="540" type="line"/>
      <point x="480" y="650" type="line"/>
    </contour>
    <contour>
      <point x="440" y="306" type="line"/>
      <point x="242" y="306" type="line"/>
      <point x="242" y="564" type="line"/>
      <point x="441" y="564" type="line"/>
      <point x="498" y="505" type="line"/>
      <point x="498" y="365" type="line"/>
    </contour>
  </outline>
</glyph>
<glyph name="r" format="1">
  <advance width="699"/>
  <unicode hex="0072"/>
  <outline>
    <contour>
      <point x="80" y="650" type="line" name="hr00"/>
      <point x="80" y="570" type="line"/>
      <point x="150" y="570" type="line"/>
      <point x="150" y="80" type="line"/>
      <point x="80" y="80" type="line"/>
      <point x="80" y="0" type="line"/>
      <point x="302" y="0" type="line"/>
      <point x="302" y="80" type="line"/>
      <point x="242" y="80" type="line"/>
      <point x="242" y="230" type="line"/>
      <point x="389" y="230" type="line"/>
      <point x="479" y="80" type="line"/>
      <point x="451" y="80" type="line"/>
      <point x="451" y="0" type="line"/>
      <point x="629" y="0" type="line"/>
      <point x="629" y="80" type="line"/>
      <point x="576" y="80" type="line"/>
      <point x="483" y="234" type="line"/>
      <point x="584" y="340" type="line"/>
      <point x="584" y="540" type="line"/>
      <point x="480" y="650" type="line"/>
    </contour>
    <contour>
      <point x="440" y="316" type="line"/>
      <point x="242" y="316" type="line"/>
      <point x="242" y="564" type="line"/>
      <point x="441" y="564" type="line"/>
      <point x="498" y="505" type="line"/>
      <point x="498" y="375" type="line"/>
    </contour>
  </outline>
</glyph>
<glyph name="t" format="1">
  <advance width="580"/>
  <unicode hex="0074"/>
  <outline>
    <contour>
      <point x="436" y="0" type="line" name="hr00"/>
      <point x="436" y="80" type="line"/>
      <point x="336" y="80" type="line"/>
      <point x="336" y="570" type="line"/>
      <point x="474" y="570" type="line"/>
      <point x="474" y="454" type="line"/>
      <point x="550" y="454" type="line"/>
      <point x="550" y="650" type="line"/>
      <point x="30" y="650" type="line"/>
      <point x="30" y="454" type="line"/>
      <point x="106" y="454" type="line"/>
      <point x="106" y="570" type="line"/>
      <point x="244" y="570" type="line"/>
      <point x="244" y="80" type="line"/>
      <point x="144" y="80" type="line"/>
      <point x="144" y="0" type="line"/>
    </contour>
  </outline>
</glyph>
<glyph name="x" format="1">
  <advance width="649"/>
  <unicode hex="0078"/>
  <outline>
    <contour>
      <point x="242" y="0" type="line" name="hr00"/>
      <point x="242" y="80" type="line"/>
      <point x="191" y="80" type="line"/>
      <point x="323" y="263" type="line"/>
      <point x="457" y="80" type="line"/>
      <point x="407" y="80" type="line"/>
      <point x="407" y="0" type="line"/>
      <point x="619" y="0" type="line"/>
      <point x="619" y="80" type="line"/>
      <point x="560" y="80" type="line"/>
      <point x="382" y="323" type="line"/>
      <point x="561" y="570" type="line"/>
      <point x="619" y="570" type="line"/>
      <point x="619" y="650" type="line"/>
      <point x="407" y="650" type="line"/>
      <point x="407" y="570" type="line"/>
      <point x="458" y="570" type="line"/>
      <point x="330" y="393" type="line"/>
      <point x="201" y="570" type="line"/>
      <point x="252" y="570" type="line"/>
      <point x="252" y="650" type="line"/>
      <point x="40" y="650" type="line"/>
      <point x="40" y="570" type="line"/>
      <point x="98" y="570" type="line"/>
      <point x="272" y="333" type="line"/>
      <point x="88" y="80" type="line"/>
      <point x="30" y="80" type="line"/>
      <point x="30" y="0" type="line"/>
    </contour>
  </outline>
</glyph>
<glyph name="z" format="1">
  <advance width="596"/>
  <unicode hex="007A"/>
  <outline>
    <contour>
      <point x="55" y="80" type="line" name="hr00"/>
      <point x="55" y="0" type="line"/>
      <point x="541" y="0" type="line"/>
      <point x="541" y="196" type="line"/>
      <point x="461" y="196" type="line"/>
      <point x="461" y="80" type="line"/>
      <point x="159" y="80" type="line"/>
      <point x="541" y="570" type="line"/>
      <point x="541" y="650" type="line"/>
      <point x="75" y="650" type="line"/>
      <point x="75" y="454" type="line"/>
      <point x="155" y="454" type="line"/>
      <point x="155" y="570" type="line"/>
      <point x="438" y="570" type="line"/>
    </contour>
  </outline>
</glyph>
<glyph name="bar" format="1">
  <advance width="317"/>
  <unicode hex="007C"/>
  <outline>
    <contour>
      <point x="120" y="-80" type="line" name="hr00"/>
      <point x="197" y="-80" type="line"/>
      <point x="197" y="830" type="line"/>
      <point x="120" y="830" type="line"/>
    </contour>
  </outline>
</glyph>
<glyph name="braceright" format="1">
  <advance width="352"/>
  <unicode hex="007D"/>
  <outline>
    <contour>
      <point x="133" y="442" type="line" name="hr00"/>
      <point x="206" y="375" type="line"/>
      <point x="133" y="308" type="line"/>
      <point x="155" y="39" type="line"/>
      <point x="103" y="-14" type="line"/>
      <point x="38" y="-14" type="line"/>
      <point x="38" y="-100" type="line"/>
      <point x="143" y="-100" type="line"/>
      <point x="247" y="10" type="line"/>
      <point x="225" y="289" type="line"/>
      <point x="287" y="342" type="line"/>
      <point x="287" y="408" type="line"/>
      <point x="225" y="461" type="line"/>
      <point x="247" y="740" type="line"/>
      <point x="143" y="850" type="line"/>
      <point x="38" y="850" type="line"/>
      <point x="38" y="764" type="line"/>
      <point x="103" y="764" type="line"/>
      <point x="155" y="711" type="line"/>
    </contour>
  </outline>
</glyph>
<glyph name="asciitilde" format="1">
  <advance width="650"/>
  <unicode hex="007E"/>
  <outline>
    <contour>
      <point x="389" y="281" type="line" name="hr00"/>
      <point x="509" y="309" type="line"/>
      <point x="565" y="407" type="line"/>
      <point x="490" y="450" type="line"/>
      <point x="454" y="387" type="line"/>
      <point x="409" y="375" type="line"/>
      <point x="261" y="461" type="line"/>
      <point x="141" y="433" type="line"/>
      <point x="85" y="335" type="line"/>
      <point x="160" y="292" type="line"/>
      <point x="196" y="355" type="line"/>
      <point x="241" y="367" type="line"/>
    </contour>
  </outline>
</glyph>
<glyph name="currency" format="1">
  <advance width="641"/>
  <unicode hex="00A4"/>
  <outline>
    <contour>
      <point x="152" y="198" type="line" name="hr00"/>
      <point x="490" y="198" type="line"/>
      <point x="531" y="244" type="line"/>
      <point x="531" y="576" type="line"/>
      <point x="490" y="622" type="line"/>
      <point x="152" y="622" type="line"/>
      <point x="110" y="576" type="line"/>
      <point x="110" y="244" type="line"/>
    </contour>
    <contour>
      <point x="215" y="275" type="line"/>
      <point x="187" y="302" type="line"/>
      <point x="187" y="518" type="line"/>
      <point x="215" y="545" type="line"/>
      <point x="427" y="545" type="line"/>
      <point x="454" y="518" type="line"/>
      <point x="454" y="302" type="line"/>
      <point x="427" y="275" type="line"/>
    </contour>
    <contour>
      <point x="49" y="89" type="line"/>
      <point x="191" y="231" type="line"/>
      <point x="142" y="281" type="line"/>
      <point x="0" y="139" type="line"/>
    </contour>
    <contour>
      <point x="641" y="139" type="line"/>
      <point x="499" y="281" type="line"/>
      <point x="450" y="231" type="line"/>
      <point x="592" y="89" type="line"/>
    </contour>
    <contour>
      <point x="0" y="680" type="line"/>
      <point x="142" y="538" type="line"/>
      <point x="191" y="588" type="line"/>
      <point x="49" y="730" type="line"/>
    </contour>
    <contour>
      <point x="592" y="730" type="line"/>
      <point x="450" y="588" type="line"/>
      <point x="499" y="538" type="line"/>
      <point x="641" y="680" type="line"/>
    </contour>
  </outline>
</glyph>
<glyph name="dieresis" format="1">
  <advance width="397"/>
  <unicode hex="00A8"/>
  <outline>
    <contour>
      <point x="63" y="711" type="line" name="hr00"/>
      <point x="155" y="711" type="line"/>
      <point x="155" y="812" type="line"/>
      <point x="63" y="812" type="line"/>
    </contour>
    <contour>
      <point x="242" y="711" type="line"/>
      <point x="334" y="711" type="line"/>
      <point x="334" y="812" type="line"/>
      <point x="242" y="812" type="line"/>
    </contour>
  </outline>
</glyph>
<glyph name="copyright" format="1">
  <advance width="700"/>
  <unicode hex="00A9"/>
  <outline>
    <contour>
      <point x="188" y="261" type="line" name="hr00"/>
      <point x="512" y="261" type="line"/>
      <point x="600" y="353" type="line"/>
      <point x="600" y="708" type="line"/>
      <point x="512" y="801" type="line"/>
      <point x="188" y="801" type="line"/>
      <point x="100" y="708" type="line"/>
      <point x="100" y="353" type="line"/>
    </contour>
    <contour>
      <point x="150" y="374" type="line"/>
      <point x="150" y="688" type="line"/>
      <point x="210" y="751" type="line"/>
      <point x="489" y="751" type="line"/>
      <point x="550" y="688" type="line"/>
      <point x="550" y="374" type="line"/>
      <point x="491" y="311" type="line"/>
      <point x="209" y="311" type="line"/>
    </contour>
    <contour>
      <point x="310" y="422" type="line"/>
      <point x="286" y="446" type="line"/>
      <point x="286" y="616" type="line"/>
      <point x="310" y="640" type="line"/>
      <point x="404" y="640" type="line"/>
      <point x="436" y="607" type="line"/>
      <point x="436" y="573" type="line"/>
      <point x="500" y="573" type="line"/>
      <point x="500" y="639" type="line"/>
      <point x="435" y="708" type="line"/>
      <point x="281" y="708" type="line"/>
      <point x="216" y="639" type="line"/>
      <point x="216" y="423" type="line"/>
      <point x="281" y="354" type="line"/>
      <point x="435" y="354" type="line"/>
      <point x="500" y="423" type="line"/>
      <point x="500" y="488" type="line"/>
      <point x="436" y="488" type="line"/>
      <point x="436" y="454" type="line"/>
      <point x="404" y="422" type="line"/>
    </contour>
  </outline>
</glyph>
<glyph name="ordfeminine" format="1">
  <advance width="401"/>
  <unicode hex="00AA"/>
  <outline>
    <contour>
      <point x="251" y="406" type="line" name="hr00"/>
      <point x="391" y="406" type="line"/>
      <point x="391" y="470" type="line"/>
      <point x="357" y="470" type="line"/>
      <point x="266" y="736" type="line"/>
      <point x="286" y="736" type="line"/>
      <point x="286" y="800" type="line"/>
      <point x="115" y="800" type="line"/>
      <point x="115" y="736" type="line"/>
      <point x="135" y="736" type="line"/>
      <point x="43" y="470" type="line"/>
      <point x="10" y="470" type="line"/>
      <point x="10" y="406" type="line"/>
      <point x="150" y="406" type="line"/>
      <point x="150" y="470" type="line"/>
      <point x="116" y="470" type="line"/>
      <point x="135" y="524" type="line"/>
      <point x="266" y="524" type="line"/>
      <point x="286" y="470" type="line"/>
      <point x="251" y="470" type="line"/>
    </contour>
    <contour>
      <point x="201" y="714" type="line"/>
      <point x="217" y="666"/>
      <point x="230" y="631"/>
      <point x="245" y="587" type="curve"/>
      <point x="156" y="587" type="line"/>
    </contour>
  </outline>
</glyph>
<glyph name="logicalnot" format="1">
  <advance width="650"/>
  <unicode hex="00AC"/>
  <outline>
    <contour>
      <point x="115" y="415" type="line" name="hr00"/>
      <point x="115" y="335" type="line"/>
      <point x="463" y="335" type="line"/>
      <point x="463" y="186" type="line"/>
      <point x="535" y="186" type="line"/>
      <point x="535" y="415" type="line"/>
    </contour>
  </outline>
</glyph>
<glyph name="threesuperior" format="1">
  <advance width="390"/>
  <unicode hex="00B3"/>
  <outline>
    <contour>
      <point x="129" y="523" type="line" name="hr00"/>
      <point x="233" y="523" type="line"/>
      <point x="242" y="513"/>
      <point x="250" y="507"/>
      <point x="259" y="497" type="curve"/>
      <point x="259" y="422" type="line"/>
      <point x="236" y="398" type="line"/>
      <point x="141" y="398" type="line"/>
      <point x="111" y="427" type="line"/>
      <point x="111" y="484" type="line"/>
      <point x="46" y="484" type="line"/>
      <point x="46" y="399" type="line"/>
      <point x="111" y="330" type="line"/>
      <point x="265" y="330" type="line"/>
      <point x="330" y="399" type="line"/>
      <point x="330" y="520" type="line"/>
      <point x="293" y="559" type="line"/>
      <point x="319" y="586" type="line"/>
      <point x="319" y="713" type="line"/>
      <point x="254" y="782" type="line"/>
      <point x="111" y="782" type="line"/>
      <point x="47" y="713" type="line"/>
      <point x="47" y="627" type="line"/>
      <point x="112" y="627" type="line"/>
      <point x="112" y="684" type="line"/>
      <point x="141" y="714" type="line"/>
      <point x="224" y="714" type="line"/>
      <point x="248" y="690" type="line"/>
      <point x="248" y="609" type="line"/>
      <point x="226" y="587" type="line"/>
      <point x="129" y="587" type="line"/>
    </contour>
  </outline>
</glyph>
<glyph name="periodcentered" format="1">
  <advance width="200"/>
  <unicode hex="00B7"/>
  <outline>
    <contour>
      <point x="50" y="435" type="line" name="hr00"/>
      <point x="50" y="315" type="line"/>
      <point x="150" y="315" type="line"/>
      <point x="150" y="435" type="line"/>
    </contour>
  </outline>
</glyph>
<glyph name="ordmasculine" format="1">
  <advance width="391"/>
  <unicode hex="00BA"/>
  <outline>
    <contour>
      <point x="110" y="406" type="line" name="hr00"/>
      <point x="282" y="406" type="line"/>
      <point x="346" y="475" type="line"/>
      <point x="346" y="731" type="line"/>
      <point x="282" y="800" type="line"/>
      <point x="110" y="800" type="line"/>
      <point x="45" y="731" type="line"/>
      <point x="45" y="475" type="line"/>
    </contour>
    <contour>
      <point x="140" y="474" type="line"/>
      <point x="115" y="498" type="line"/>
      <point x="115" y="708" type="line"/>
      <point x="140" y="732" type="line"/>
      <point x="252" y="732" type="line"/>
      <point x="276" y="708" type="line"/>
      <point x="276" y="498" type="line"/>
      <point x="252" y="474" type="line"/>
    </contour>
  </outline>
</glyph>
<glyph name="guillemotright" format="1">
  <advance width="469"/>
  <unicode hex="00BB"/>
  <outline>
    <contour>
      <point x="235" y="221" type="line" name="hr00"/>
      <point x="304" y="168" type="line"/>
      <point x="434" y="342" type="line"/>
      <point x="434" y="408" type="line"/>
      <point x="304" y="582" type="line"/>
      <point x="235" y="529" type="line"/>
      <point x="347" y="375" type="line"/>
    </contour>
    <contour>
      <point x="35" y="221" type="line"/>
      <point x="104" y="168" type="line"/>
      <point x="234" y="342" type="line"/>
      <point x="234" y="408" type="line"/>
      <point x="104" y="582" type="line"/>
      <point x="35" y="529" type="line"/>
      <point x="147" y="375" type="line"/>
    </contour>
  </outline>
</glyph>
<glyph name="threequarters" format="1">
  <advance width="900"/>
  <unicode hex="00BE"/>
  <outline>
    <contour>
      <point x="723" y="0" type="line" name="hr00"/>
      <point x="794" y="0" type="line"/>
      <point x="794" y="108" type="line"/>
      <point x="830" y="108" type="line"/>
      <point x="830" y="172" type="line"/>
      <point x="794" y="172" type="line"/>
      <point x="794" y="452" type="line"/>
      <point x="692" y="452" type="line"/>
      <point x="521" y="165" type="line"/>
      <point x="521" y="108" type="line"/>
      <point x="723" y="108" type="line"/>
    </contour>
    <contour>
      <point x="605" y="172" type="line"/>
      <point x="723" y="370" type="line"/>
      <point x="723" y="172" type="line"/>
    </contour>
    <contour>
      <point x="138" y="491" type="line"/>
      <point x="242" y="491" type="line"/>
      <point x="251" y="481"/>
      <point x="259" y="475"/>
      <point x="268" y="465" type="curve"/>
      <point x="268" y="390" type="line"/>
      <point x="245" y="366" type="line"/>
      <point x="150" y="366" type="line"/>
      <point x="120" y="395" type="line"/>
      <point x="120" y="452" type="line"/>
      <point x="55" y="452" type="line"/>
      <point x="55" y="367" type="line"/>
      <point x="120" y="298" type="line"/>
      <point x="274" y="298" type="line"/>
      <point x="339" y="367" type="line"/>
      <point x="339" y="488" type="line"/>
      <point x="302" y="527" type="line"/>
      <point x="328" y="554" type="line"/>
      <point x="328" y="681" type="line"/>
      <point x="263" y="750" type="line"/>
      <point x="120" y="750" type="line"/>
      <point x="56" y="681" type="line"/>
      <point x="56" y="595" type="line"/>
      <point x="121" y="595" type="line"/>
      <point x="121" y="652" type="line"/>
      <point x="150" y="682" type="line"/>
      <point x="233" y="682" type="line"/>
      <point x="257" y="658" type="line"/>
      <point x="257" y="577" type="line"/>
      <point x="235" y="555" type="line"/>
      <point x="138" y="555" type="line"/>
    </contour>
    <contour>
      <point x="279" y="-35" type="line"/>
      <point x="356" y="-35" type="line"/>
      <point x="661" y="784" type="line"/>
      <point x="584" y="784" type="line"/>
    </contour>
  </outline>
</glyph>
<glyph name="questiondown" format="1">
  <advance width="519"/>
  <unicode hex="00BF"/>
  <outline>
    <contour>
      <point x="271" y="436" type="line" name="hr00"/>
      <point x="60" y="206" type="line"/>
      <point x="60" y="10" type="line"/>
      <point x="164" y="-100" type="line"/>
      <point x="355" y="-100" type="line"/>
      <point x="459" y="10" type="line"/>
      <point x="459" y="136" type="line"/>
      <point x="376" y="136" type="line"/>
      <point x="376" y="48" type="line"/>
      <point x="316" y="-14" type="line"/>
      <point x="204" y="-14" type="line"/>
      <point x="152" y="39" type="line"/>
      <point x="152" y="177" type="line"/>
      <point x="331" y="376" type="line"/>
    </contour>
    <contour>
      <point x="330" y="530" type="line"/>
      <point x="330" y="650" type="line"/>
      <point x="230" y="650" type="line"/>
      <point x="230" y="530" type="line"/>
    </contour>
  </outline>
</glyph>
<glyph name="Atilde" format="1">
  <advance width="657"/>
  <unicode hex="00C3"/>
  <outline>
    <contour>
      <point x="430" y="0" type="line" name="hr00"/>
      <point x="642" y="0" type="line"/>
      <point x="642" y="80" type="line"/>
      <point x="592" y="80" type="line"/>
      <point x="416" y="670" type="line"/>
      <point x="462" y="670" type="line"/>
      <point x="462" y="750" type="line"/>
      <point x="195" y="750" type="line"/>
      <point x="195" y="670" type="line"/>
      <point x="241" y="670" type="line"/>
      <point x="65" y="80" type="line"/>
      <point x="15" y="80" type="line"/>
      <point x="15" y="0" type="line"/>
      <point x="227" y="0" type="line"/>
      <point x="227" y="80" type="line"/>
      <point x="157" y="80" type="line"/>
      <point x="203" y="234" type="line"/>
      <point x="454" y="234" type="line"/>
      <point x="500" y="80" type="line"/>
      <point x="430" y="80" type="line"/>
    </contour>
    <contour>
      <point x="328" y="655" type="line"/>
      <point x="430" y="314" type="line"/>
      <point x="227" y="314" type="line"/>
    </contour>
    <contour>
      <point x="399" y="811" type="line"/>
      <point x="477" y="888" type="line"/>
      <point x="464" y="916" type="line"/>
      <point x="392" y="916" type="line"/>
      <point x="360" y="888" type="line"/>
      <point x="303" y="916" type="line"/>
      <point x="277" y="916" type="line"/>
      <point x="199" y="839" type="line"/>
      <point x="212" y="811" type="line"/>
      <point x="284" y="811" type="line"/>
      <point x="316" y="839" type="line"/>
      <point x="373" y="811" type="line"/>
    </contour>
  </outline>
</glyph>
<glyph name="Adieresis" format="1">
  <advance width="657"/>
  <unicode hex="00C4"/>
  <outline>
    <contour>
      <point x="430" y="0" type="line" name="hr00"/>
      <point x="642" y="0" type="line"/>
      <point x="642" y="80" type="line"/>
      <point x="592" y="80" type="line"/>
      <point x="416" y="670" type="line"/>
      <point x="462" y="670" type="line"/>
      <point x="462" y="750" type="line"/>
      <point x="195" y="750" type="line"/>
      <point x="195" y="670" type="line"/>
      <point x="241" y="670" type="line"/>
      <point x="65" y="80" type="line"/>
      <point x="15" y="80" type="line"/>
      <point x="15" y="0" type="line"/>
      <point x="227" y="0" type="line"/>
      <point x="227" y="80" type="line"/>
      <point x="157" y="80" type="line"/>
      <point x="203" y="234" type="line"/>
      <point x="454" y="234" type="line"/>
      <point x="500" y="80" type="line"/>
      <point x="430" y="80" type="line"/>
    </contour>
    <contour>
      <point x="328" y="655" type="line"/>
      <point x="430" y="314" type="line"/>
      <point x="227" y="314" type="line"/>
    </contour>
    <contour>
      <point x="372" y="811" type="line"/>
      <point x="464" y="811" type="line"/>
      <point x="464" y="912" type="line"/>
      <point x="372" y="912" type="line"/>
    </contour>
    <contour>
      <point x="193" y="811" type="line"/>
      <point x="285" y="811" type="line"/>
      <point x="285" y="912" type="line"/>
      <point x="193" y="912" type="line"/>
    </contour>
  </outline>
</glyph>
<glyph name="Aring" format="1">
  <advance width="657"/>
  <unicode hex="00C5"/>
  <outline>
    <contour>
      <point x="462" y="750" type="line" name="hr00"/>
      <point x="195" y="750" type="line"/>
      <point x="195" y="670" type="line"/>
      <point x="241" y="670" type="line"/>
      <point x="65" y="80" type="line"/>
      <point x="15" y="80" type="line"/>
      <point x="15" y="0" type="line"/>
      <point x="227" y="0" type="line"/>
      <point x="227" y="80" type="line"/>
      <point x="157" y="80" type="line"/>
      <point x="203" y="234" type="line"/>
      <point x="454" y="234" type="line"/>
      <point x="500" y="80" type="line"/>
      <point x="430" y="80" type="line"/>
      <point x="430" y="0" type="line"/>
      <point x="642" y="0" type="line"/>
      <point x="642" y="80" type="line"/>
      <point x="592" y="80" type="line"/>
      <point x="416" y="670" type="line"/>
      <point x="462" y="670" type="line"/>
    </contour>
    <contour>
      <point x="328" y="655" type="line"/>
      <point x="430" y="314" type="line"/>
      <point x="227" y="314" type="line"/>
    </contour>
    <contour>
      <point x="285" y="801" type="line"/>
      <point x="372" y="801" type="line"/>
      <point x="407" y="838" type="line"/>
      <point x="407" y="916" type="line"/>
      <point x="372" y="953" type="line"/>
      <point x="285" y="953" type="line"/>
      <point x="250" y="916" type="line"/>
      <point x="250" y="838" type="line"/>
    </contour>
    <contour>
      <point x="294" y="842" type="line"/>
      <point x="294" y="912" type="line"/>
      <point x="363" y="912" type="line"/>
      <point x="363" y="842" type="line"/>
    </contour>
  </outline>
</glyph>
<glyph name="AE" format="1">
  <advance width="947"/>
  <unicode hex="00C6"/>
  <outline>
    <contour>
      <point x="391" y="80" type="line" name="hr00"/>
      <point x="391" y="0" type="line"/>
      <point x="867" y="0" type="line"/>
      <point x="867" y="196" type="line"/>
      <point x="787" y="196" type="line"/>
      <point x="787" y="80" type="line"/>
      <point x="553" y="80" type="line"/>
      <point x="553" y="335" type="line"/>
      <point x="787" y="335" type="line"/>
      <point x="787" y="415" type="line"/>
      <point x="553" y="415" type="line"/>
      <point x="553" y="670" type="line"/>
      <point x="787" y="670" type="line"/>
      <point x="787" y="554" type="line"/>
      <point x="867" y="554" type="line"/>
      <point x="867" y="750" type="line"/>
      <point x="195" y="750" type="line"/>
      <point x="195" y="670" type="line"/>
      <point x="241" y="670" type="line"/>
      <point x="65" y="80" type="line"/>
      <point x="15" y="80" type="line"/>
      <point x="15" y="0" type="line"/>
      <point x="227" y="0" type="line"/>
      <point x="227" y="80" type="line"/>
      <point x="157" y="80" type="line"/>
      <point x="233" y="335" type="line"/>
      <point x="461" y="335" type="line"/>
      <point x="461" y="80" type="line"/>
    </contour>
    <contour>
      <point x="333" y="670" type="line"/>
      <point x="461" y="670" type="line"/>
      <point x="461" y="415" type="line"/>
      <point x="257" y="415" type="line"/>
    </contour>
  </outline>
</glyph>
<glyph name="Edieresis" format="1">
  <advance width="636"/>
  <unicode hex="00CB"/>
  <outline>
    <contour>
      <point x="80" y="750" type="line"/>
      <point x="80" y="670" type="line"/>
      <point x="150" y="670" type="line"/>
      <point x="150" y="80" type="line"/>
      <point x="80" y="80" type="line"/>
      <point x="80" y="0" type="line"/>
      <point x="556" y="0" type="line"/>
      <point x="556" y="196" type="line"/>
      <point x="476" y="196" type="line"/>
      <point x="476" y="80" type="line"/>
      <point x="242" y="80" type="line"/>
      <point x="242" y="335" type="line"/>
      <point x="476" y="335" type="line"/>
      <point x="476" y="415" type="line"/>
      <point x="242" y="415" type="line"/>
      <point x="242" y="670" type="line"/>
      <point x="476" y="670" type="line"/>
      <point x="476" y="554" type="line"/>
      <point x="556" y="554" type="line"/>
      <point x="556" y="750" type="line"/>
    </contour>
    <contour>
      <point x="177" y="811" type="line" name="hr01"/>
      <point x="269" y="811" type="line"/>
      <point x="269" y="912" type="line"/>
      <point x="177" y="912" type="line"/>
    </contour>
    <contour>
      <point x="356" y="811" type="line"/>
      <point x="448" y="811" type="line"/>
      <point x="448" y="912" type="line"/>
      <point x="356" y="912" type="line"/>
    </contour>
  </outline>
</glyph>
<glyph name="Idieresis" format="1">
  <advance width="392"/>
  <unicode hex="00CF"/>
  <outline>
    <contour>
      <point x="70" y="750" type="line"/>
      <point x="70" y="670" type="line"/>
      <point x="150" y="670" type="line" name="hr01"/>
      <point x="150" y="80" type="line"/>
      <point x="70" y="80" type="line" name="hr02"/>
      <point x="70" y="0" type="line"/>
      <point x="322" y="0" type="line"/>
      <point x="322" y="80" type="line"/>
      <point x="242" y="80" type="line" name="hr03"/>
      <point x="242" y="670" type="line"/>
      <point x="322" y="670" type="line" name="hr04"/>
      <point x="322" y="750" type="line"/>
    </contour>
    <contour>
      <point x="240" y="811" type="line"/>
      <point x="332" y="811" type="line"/>
      <point x="332" y="912" type="line"/>
      <point x="240" y="912" type="line"/>
    </contour>
    <contour>
      <point x="61" y="811" type="line"/>
      <point x="153" y="811" type="line"/>
      <point x="153" y="912" type="line"/>
      <point x="61" y="912" type="line"/>
    </contour>
  </outline>
</glyph>
<glyph name="Oacute" format="1">
  <advance width="650"/>
  <unicode hex="00D3"/>
  <outline>
    <contour>
      <point x="184" y="0" type="line"/>
      <point x="466" y="0" type="line"/>
      <point x="570" y="110" type="line"/>
      <point x="570" y="640" type="line"/>
      <point x="466" y="750" type="line"/>
      <point x="184" y="750" type="line"/>
      <point x="80" y="640" type="line"/>
      <point x="80" y="110" type="line"/>
    </contour>
    <contour>
      <point x="223" y="86" type="line"/>
      <point x="172" y="139" type="line"/>
      <point x="172" y="611" type="line"/>
      <point x="224" y="664" type="line"/>
      <point x="427" y="664" type="line"/>
      <point x="478" y="611" type="line"/>
      <point x="478" y="139" type="line"/>
      <point x="426" y="86" type="line"/>
    </contour>
    <contour>
      <point x="407" y="926" type="line"/>
      <point x="213" y="849" type="line"/>
      <point x="226" y="811" type="line" name="hr01"/>
      <point x="358" y="811" type="line"/>
      <point x="436" y="843" type="line"/>
    </contour>
  </outline>
</glyph>
<glyph name="multiply" format="1">
  <advance width="650"/>
  <unicode hex="00D7"/>
  <outline>
    <contour>
      <point x="475" y="169" type="line" name="hr00"/>
      <point x="531" y="225" type="line"/>
      <point x="381" y="375" type="line"/>
      <point x="531" y="525" type="line"/>
      <point x="475" y="581" type="line"/>
      <point x="325" y="431" type="line"/>
      <point x="175" y="581" type="line"/>
      <point x="119" y="525" type="line"/>
      <point x="269" y="375" type="line"/>
      <point x="119" y="225" type="line"/>
      <point x="175" y="169" type="line"/>
      <point x="325" y="319" type="line"/>
    </contour>
  </outline>
</glyph>
<glyph name="Ugrave" format="1">
  <advance width="740"/>
  <unicode hex="00D9"/>
  <outline>
    <contour>
      <point x="448" y="750" type="line"/>
      <point x="448" y="670" type="line"/>
      <point x="518" y="670" type="line"/>
      <point x="518" y="139" type="line"/>
      <point x="466" y="86" type="line"/>
      <point x="273" y="86" type="line"/>
      <point x="222" y="139" type="line"/>
      <point x="222" y="670" type="line"/>
      <point x="292" y="670" type="line"/>
      <point x="292" y="750" type="line"/>
      <point x="70" y="750" type="line"/>
      <point x="70" y="670" type="line"/>
      <point x="130" y="670" type="line"/>
      <point x="130" y="110" type="line"/>
      <point x="234" y="0" type="line"/>
      <point x="506" y="0" type="line"/>
      <point x="610" y="110" type="line"/>
      <point x="610" y="670" type="line"/>
      <point x="670" y="670" type="line"/>
      <point x="670" y="750" type="line"/>
    </contour>
    <contour>
      <point x="258" y="843" type="line"/>
      <point x="336" y="811" type="line" name="hr01"/>
      <point x="468" y="811" type="line"/>
      <point x="481" y="849" type="line"/>
      <point x="287" y="926" type="line"/>
    </contour>
  </outline>
</glyph>
<glyph name="Udieresis" format="1">
  <advance width="740"/>
  <unicode hex="00DC"/>
  <outline>
    <contour>
      <point x="448" y="750" type="line" name="hr00"/>
      <point x="448" y="670" type="line"/>
      <point x="518" y="670" type="line"/>
      <point x="518" y="139" type="line"/>
      <point x="466" y="86" type="line"/>
      <point x="273" y="86" type="line"/>
      <point x="222" y="139" type="line"/>
      <point x="222" y="670" type="line"/>
      <point x="292" y="670" type="line"/>
      <point x="292" y="750" type="line"/>
      <point x="70" y="750" type="line"/>
      <point x="70" y="670" type="line"/>
      <point x="130" y="670" type="line"/>
      <point x="130" y="110" type="line"/>
      <point x="234" y="0" type="line"/>
      <point x="506" y="0" type="line"/>
      <point x="610" y="110" type="line"/>
      <point x="610" y="670" type="line"/>
      <point x="670" y="670" type="line"/>
      <point x="670" y="750" type="line"/>
    </contour>
    <contour>
      <point x="413" y="811" type="line"/>
      <point x="505" y="811" type="line"/>
      <point x="505" y="912" type="line"/>
      <point x="413" y="912" type="line"/>
    </contour>
    <contour>
      <point x="234" y="811" type="line"/>
      <point x="326" y="811" type="line"/>
      <point x="326" y="912" type="line"/>
      <point x="234" y="912" type="line"/>
    </contour>
  </outline>
</glyph>
<glyph name="Yacute" format="1">
  <advance width="607"/>
  <unicode hex="00DD"/>
  <outline>
    <contour>
      <point x="440" y="0" type="line"/>
      <point x="440" y="80" type="line"/>
      <point x="350" y="80" type="line"/>
      <point x="350" y="237" type="line"/>
      <point x="536" y="670" type="line"/>
      <point x="587" y="670" type="line"/>
      <point x="587" y="750" type="line"/>
      <point x="375" y="750" type="line"/>
      <point x="375" y="670" type="line"/>
      <point x="448" y="670" type="line"/>
      <point x="303" y="333" type="line"/>
      <point x="158" y="670" type="line"/>
      <point x="232" y="670" type="line"/>
      <point x="232" y="750" type="line"/>
      <point x="20" y="750" type="line"/>
      <point x="20" y="670" type="line"/>
      <point x="70" y="670" type="line"/>
      <point x="258" y="234" type="line"/>
      <point x="258" y="80" type="line"/>
      <point x="168" y="80" type="line"/>
      <point x="168" y="0" type="line"/>
    </contour>
    <contour>
      <point x="386" y="926" type="line"/>
      <point x="192" y="849" type="line"/>
      <point x="205" y="811" type="line" name="hr01"/>
      <point x="337" y="811" type="line"/>
      <point x="415" y="843" type="line"/>
    </contour>
  </outline>
</glyph>
<glyph name="Thorn" format="1">
  <advance width="624"/>
  <unicode hex="00DE"/>
  <outline>
    <contour>
      <point x="80" y="750" type="line" name="hr00"/>
      <point x="80" y="670" type="line"/>
      <point x="150" y="670" type="line"/>
      <point x="150" y="80" type="line"/>
      <point x="80" y="80" type="line"/>
      <point x="80" y="0" type="line"/>
      <point x="242" y="0" type="line"/>
      <point x="242" y="154" type="line"/>
      <point x="480" y="154" type="line"/>
      <point x="584" y="264" type="line"/>
      <point x="584" y="494" type="line"/>
      <point x="480" y="604" type="line"/>
      <point x="242" y="604" type="line"/>
      <point x="242" y="750" type="line"/>
    </contour>
    <contour>
      <point x="440" y="240" type="line"/>
      <point x="242" y="240" type="line"/>
      <point x="242" y="518" type="line"/>
      <point x="441" y="518" type="line"/>
      <point x="498" y="459" type="line"/>
      <point x="498" y="299" type="line"/>
    </contour>
  </outline>
</glyph>
<glyph name="acircumflex" format="1">
  <advance width="657"/>
  <unicode hex="00E2"/>
  <outline>
    <contour>
      <point x="462" y="650" type="line" name="hr00"/>
      <point x="195" y="650" type="line"/>
      <point x="195" y="570" type="line"/>
      <point x="237" y="570" type="line"/>
      <point x="68" y="80" type="line"/>
      <point x="15" y="80" type="line"/>
      <point x="15" y="0" type="line"/>
      <point x="227" y="0" type="line"/>
      <point x="227" y="80" type="line"/>
      <point x="160" y="80" type="line"/>
      <point x="203" y="204" type="line"/>
      <point x="453" y="204" type="line"/>
      <point x="496" y="80" type="line"/>
      <point x="430" y="80" type="line"/>
      <point x="430" y="0" type="line"/>
      <point x="642" y="0" type="line"/>
      <point x="642" y="80" type="line"/>
      <point x="588" y="80" type="line"/>
      <point x="419" y="570" type="line"/>
      <point x="462" y="570" type="line"/>
    </contour>
    <contour>
      <point x="328" y="567" type="line"/>
      <point x="426" y="284" type="line"/>
      <point x="230" y="284" type="line"/>
    </contour>
    <contour>
      <point x="279" y="816" type="line"/>
      <point x="190" y="739" type="line"/>
      <point x="203" y="711" type="line"/>
      <point x="285" y="711" type="line"/>
      <point x="328" y="760" type="line"/>
      <point x="372" y="711" type="line"/>
      <point x="454" y="711" type="line"/>
      <point x="467" y="739" type="line"/>
      <point x="378" y="816" type="line"/>
    </contour>
  </outline>
</glyph>
<glyph name="atilde" format="1">
  <advance width="657"/>
  <unicode hex="00E3"/>
  <outline>
    <contour>
      <point x="195" y="650" type="line" name="hr00"/>
      <point x="195" y="570" type="line"/>
      <point x="237" y="570" type="line"/>
      <point x="68" y="80" type="line"/>
      <point x="15" y="80" type="line"/>
      <point x="15" y="0" type="line"/>
      <point x="227" y="0" type="line"/>
      <point x="227" y="80" type="line"/>
      <point x="160" y="80" type="line"/>
      <point x="203" y="204" type="line"/>
      <point x="453" y="204" type="line"/>
      <point x="496" y="80" type="line"/>
      <point x="430" y="80" type="line"/>
      <point x="430" y="0" type="line"/>
      <point x="642" y="0" type="line"/>
      <point x="642" y="80" type="line"/>
      <point x="588" y="80" type="line"/>
      <point x="419" y="570" type="line"/>
      <point x="462" y="570" type="line"/>
      <point x="462" y="650" type="line"/>
    </contour>
    <contour>
      <point x="328" y="567" type="line"/>
      <point x="426" y="284" type="line"/>
      <point x="230" y="284" type="line"/>
    </contour>
    <contour>
      <point x="399" y="711" type="line"/>
      <point x="477" y="788" type="line"/>
      <point x="464" y="816" type="line"/>
      <point x="392" y="816" type="line"/>
      <point x="360" y="788" type="line"/>
      <point x="303" y="816" type="line"/>
      <point x="277" y="816" type="line"/>
      <point x="199" y="739" type="line"/>
      <point x="212" y="711" type="line"/>
      <point x="284" y="711" type="line"/>
      <point x="316" y="739" type="line"/>
      <point x="373" y="711" type="line"/>
    </contour>
  </outline>
</glyph>
<glyph name="aring" format="1">
  <advance width="657"/>
  <unicode hex="00E5"/>
  <outline>
    <contour>
      <point x="430" y="0" type="line" name="hr00"/>
      <point x="642" y="0" type="line"/>
      <point x="642" y="80" type="line"/>
      <point x="588" y="80" type="line"/>
      <point x="419" y="570" type="line"/>
      <point x="462" y="570" type="line"/>
      <point x="462" y="650" type="line"/>
      <point x="195" y="650" type="line"/>
      <point x="195" y="570" type="line"/>
      <point x="237" y="570" type="line"/>
      <point x="68" y="80" type="line"/>
      <point x="15" y="80" type="line"/>
      <point x="15" y="0" type="line"/>
      <point x="227" y="0" type="line"/>
      <point x="227" y="80" type="line"/>
      <point x="160" y="80" type="line"/>
      <point x="203" y="204" type="line"/>
      <point x="453" y="204" type="line"/>
      <point x="496" y="80" type="line"/>
      <point x="430" y="80" type="line"/>
    </contour>
    <contour>
      <point x="328" y="567" type="line"/>
      <point x="426" y="284" type="line"/>
      <point x="230" y="284" type="line"/>
    </contour>
    <contour>
      <point x="285" y="701" type="line"/>
      <point x="372" y="701" type="line"/>
      <point x="407" y="738" type="line"/>
      <point x="407" y="816" type="line"/>
      <point x="372" y="853" type="line"/>
      <point x="285" y="853" type="line"/>
      <point x="250" y="816" type="line"/>
      <point x="250" y="738" type="line"/>
    </contour>
    <contour>
      <point x="294" y="742" type="line"/>
      <point x="294" y="812" type="line"/>
      <point x="363" y="812" type="line"/>
      <point x="363" y="742" type="line"/>
    </contour>
  </outline>
</glyph>
<glyph name="igrave" format="1">
  <advance width="392"/>
  <unicode hex="00EC"/>
  <outline>
    <contour>
      <point x="70" y="650" type="line"/>
      <point x="70" y="570" type="line"/>
      <point x="150" y="570" type="line"/>
      <point x="150" y="80" type="line"/>
      <point x="70" y="80" type="line"/>
      <point x="70" y="0" type="line"/>
      <point x="322" y="0" type="line"/>
      <point x="322" y="80" type="line"/>
      <point x="242" y="80" type="line"/>
      <point x="242" y="570" type="line"/>
      <point x="322" y="570" type="line"/>
      <point x="322" y="650" type="line"/>
    </contour>
    <contour>
      <point x="85" y="743" type="line"/>
      <point x="163" y="711" type="line" name="hr01"/>
      <point x="295" y="711" type="line"/>
      <point x="308" y="749" type="line"/>
      <point x="114" y="826" type="line"/>
    </contour>
  </outline>
</glyph>
<glyph name="iacute" format="1">
  <advance width="392"/>
  <unicode hex="00ED"/>
  <outline>
    <contour>
      <point x="70" y="650" type="line"/>
      <point x="70" y="570" type="line"/>
      <point x="150" y="570" type="line"/>
      <point x="150" y="80" type="line"/>
      <point x="70" y="80" type="line"/>
      <point x="70" y="0" type="line"/>
      <point x="322" y="0" type="line"/>
      <point x="322" y="80" type="line"/>
      <point x="242" y="80" type="line"/>
      <point x="242" y="570" type="line"/>
      <point x="322" y="570" type="line"/>
      <point x="322" y="650" type="line"/>
    </contour>
    <contour>
      <point x="279" y="826" type="line"/>
      <point x="85" y="749" type="line"/>
      <point x="98" y="711" type="line" name="hr01"/>
      <point x="230" y="711" type="line"/>
      <point x="308" y="743" type="line"/>
    </contour>
  </outline>
</glyph>
<glyph name="icircumflex" format="1">
  <advance width="392"/>
  <unicode hex="00EE"/>
  <outline>
    <contour>
      <point x="70" y="650" type="line" name="hr00"/>
      <point x="70" y="570" type="line"/>
      <point x="150" y="570" type="line"/>
      <point x="150" y="80" type="line"/>
      <point x="70" y="80" type="line"/>
      <point x="70" y="0" type="line"/>
      <point x="322" y="0" type="line"/>
      <point x="322" y="80" type="line"/>
      <point x="242" y="80" type="line"/>
      <point x="242" y="570" type="line"/>
      <point x="322" y="570" type="line"/>
      <point x="322" y="650" type="line"/>
    </contour>
    <contour>
      <point x="147" y="816" type="line"/>
      <point x="58" y="739" type="line"/>
      <point x="71" y="711" type="line"/>
      <point x="153" y="711" type="line"/>
      <point x="196" y="760" type="line"/>
      <point x="240" y="711" type="line"/>
      <point x="322" y="711" type="line"/>
      <point x="335" y="739" type="line"/>
      <point x="246" y="816" type="line"/>
    </contour>
  </outline>
</glyph>
<glyph name="idieresis" format="1">
  <advance width="392"/>
  <unicode hex="00EF"/>
  <outline>
    <contour>
      <point x="70" y="650" type="line"/>
      <point x="70" y="570" type="line"/>
      <point x="150" y="570" type="line" name="hr01"/>
      <point x="150" y="80" type="line"/>
      <point x="70" y="80" type="line" name="hr02"/>
      <point x="70" y="0" type="line"/>
      <point x="322" y="0" type="line"/>
      <point x="322" y="80" type="line"/>
      <point x="242" y="80" type="line" name="hr03"/>
      <point x="242" y="570" type="line"/>
      <point x="322" y="570" type="line" name="hr04"/>
      <point x="322" y="650" type="line"/>
    </contour>
    <contour>
      <point x="240" y="711" type="line"/>
      <point x="332" y="711" type="line"/>
      <point x="332" y="812" type="line"/>
      <point x="240" y="812" type="line"/>
    </contour>
    <contour>
      <point x="61" y="711" type="line"/>
      <point x="153" y="711" type="line"/>
      <point x="153" y="812" type="line"/>
      <point x="61" y="812" type="line"/>
    </contour>
  </outline>
</glyph>
<glyph name="divide" format="1">
  <advance width="650"/>
  <unicode hex="00F7"/>
  <outline>
    <contour>
      <point x="115" y="415" type="line" name="hr00"/>
      <point x="115" y="335" type="line"/>
      <point x="535" y="335" type="line"/>
      <point x="535" y="415" type="line"/>
    </contour>
    <contour>
      <point x="275" y="635" type="line"/>
      <point x="275" y="515" type="line"/>
      <point x="375" y="515" type="line"/>
      <point x="375" y="635" type="line"/>
    </contour>
    <contour>
      <point x="275" y="235" type="line"/>
      <point x="275" y="115" type="line"/>
      <point x="375" y="115" type="line"/>
      <point x="375" y="235" type="line"/>
    </contour>
  </outline>
</glyph>
<glyph name="uacute" format="1">
  <advance width="740"/>
  <unicode hex="00FA"/>
  <outline>
    <contour>
      <point x="448" y="650" type="line" name="hr00"/>
      <point x="448" y="570" type="line"/>
      <point x="518" y="570" type="line"/>
      <point x="518" y="139" type="line"/>
      <point x="466" y="86" type="line"/>
      <point x="273" y="86" type="line"/>
      <point x="222" y="139" type="line"/>
      <point x="222" y="570" type="line"/>
      <point x="292" y="570" type="line"/>
      <point x="292" y="650" type="line"/>
      <point x="70" y="650" type="line"/>
      <point x="70" y="570" type="line"/>
      <point x="130" y="570" type="line"/>
      <point x="130" y="110" type="line"/>
      <point x="234" y="0" type="line"/>
      <point x="506" y="0" type="line"/>
      <point x="610" y="110" type="line"/>
      <point x="610" y="570" type="line"/>
      <point x="670" y="570" type="line"/>
      <point x="670" y="650" type="line"/>
    </contour>
    <contour>
      <point x="482" y="826" type="line"/>
      <point x="288" y="749" type="line"/>
      <point x="301" y="711" type="line"/>
      <point x="433" y="711" type="line"/>
      <point x="511" y="743" type="line"/>
    </contour>
  </outline>
</glyph>
<glyph name="ydieresis" format="1">
  <advance width="607"/>
  <unicode hex="00FF"/>
  <outline>
    <contour>
      <point x="440" y="0" type="line"/>
      <point x="440" y="80" type="line"/>
      <point x="350" y="80" type="line"/>
      <point x="350" y="206" type="line"/>
      <point x="523" y="570" type="line"/>
      <point x="587" y="570" type="line"/>
      <point x="587" y="650" type="line"/>
      <point x="375" y="650" type="line"/>
      <point x="375" y="570" type="line"/>
      <point x="435" y="570" type="line"/>
      <point x="303" y="293" type="line"/>
      <point x="172" y="570" type="line"/>
      <point x="232" y="570" type="line"/>
      <point x="232" y="650" type="line"/>
      <point x="20" y="650" type="line"/>
      <point x="20" y="570" type="line"/>
      <point x="84" y="570" type="line"/>
      <point x="258" y="204" type="line"/>
      <point x="258" y="80" type="line"/>
      <point x="168" y="80" type="line" name="hr01"/>
      <point x="168" y="0" type="line"/>
    </contour>
    <contour>
      <point x="168" y="711" type="line"/>
      <point x="260" y="711" type="line"/>
      <point x="260" y="812" type="line"/>
      <point x="168" y="812" type="line"/>
    </contour>
    <contour>
      <point x="347" y="711" type="line"/>
      <point x="439" y="711" type="line"/>
      <point x="439" y="812" type="line"/>
      <point x="347" y="812" type="line"/>
    </contour>
  </outline>
</glyph>
<glyph name="kgreenlandic" format="1">
  <advance width="669"/>
  <unicode hex="0138"/>
  <outline>
    <contour>
      <point x="242" y="570" type="line" name="hr00"/>
      <point x="312" y="570" type="line"/>
      <point x="312" y="650" type="line"/>
      <point x="80" y="650" type="line"/>
      <point x="80" y="570" type="line"/>
      <point x="150" y="570" type="line"/>
      <point x="150" y="80" type="line"/>
      <point x="80" y="80" type="line"/>
      <point x="80" y="0" type="line"/>
      <point x="312" y="0" type="line"/>
      <point x="312" y="80" type="line"/>
      <point x="242" y="80" type="line"/>
    </contour>
    <contour>
      <point x="320" y="343" type="line"/>
      <point x="508" y="80" type="line"/>
      <point x="457" y="80" type="line"/>
      <point x="457" y="0" type="line"/>
      <point x="669" y="0" type="line"/>
      <point x="669" y="80" type="line"/>
      <point x="611" y="80" type="line"/>
      <point x="389" y="390" type="line"/>
    </contour>
    <contour>
      <point x="242" y="162" type="line"/>
      <point x="581" y="570" type="line"/>
      <point x="639" y="570" type="line"/>
      <point x="639" y="650" type="line"/>
      <point x="536" y="650" type="line"/>
      <point x="162" y="195" type="line"/>
    </contour>
  </outline>
</glyph>
<glyph name="scaron" format="1">
  <advance width="600"/>
  <unicode hex="0161"/>
  <outline>
    <contour>
      <point x="438" y="228" type="line"/>
      <point x="438" y="139" type="line"/>
      <point x="387" y="86" type="line"/>
      <point x="214" y="86" type="line"/>
      <point x="153" y="148" type="line"/>
      <point x="153" y="236" type="line"/>
      <point x="70" y="236" type="line"/>
      <point x="70" y="110" type="line"/>
      <point x="174" y="0" type="line"/>
      <point x="426" y="0" type="line"/>
      <point x="530" y="110" type="line"/>
      <point x="530" y="257" type="line"/>
      <point x="429" y="363" type="line"/>
      <point x="221" y="363" type="line"/>
      <point x="172" y="413" type="line" name="hr01"/>
      <point x="172" y="511" type="line"/>
      <point x="224" y="564" type="line"/>
      <point x="377" y="564" type="line"/>
      <point x="437" y="502" type="line"/>
      <point x="437" y="414" type="line"/>
      <point x="520" y="414" type="line"/>
      <point x="520" y="540" type="line"/>
      <point x="416" y="650" type="line"/>
      <point x="184" y="650" type="line"/>
      <point x="80" y="540" type="line"/>
      <point x="80" y="384" type="line"/>
      <point x="182" y="277" type="line"/>
      <point x="390" y="277" type="line"/>
    </contour>
    <contour>
      <point x="349" y="711" type="line"/>
      <point x="438" y="788" type="line"/>
      <point x="425" y="816" type="line"/>
      <point x="343" y="816" type="line"/>
      <point x="299" y="767" type="line"/>
      <point x="256" y="816" type="line"/>
      <point x="174" y="816" type="line"/>
      <point x="161" y="788" type="line"/>
      <point x="250" y="711" type="line"/>
    </contour>
  </outline>
</glyph>
<glyph name="Zcaron" format="1">
  <advance width="596"/>
  <unicode hex="017D"/>
  <outline>
    <contour>
      <point x="55" y="80" type="line" name="hr00"/>
      <point x="55" y="0" type="line"/>
      <point x="541" y="0" type="line"/>
      <point x="541" y="196" type="line"/>
      <point x="461" y="196" type="line"/>
      <point x="461" y="80" type="line"/>
      <point x="158" y="80" type="line"/>
      <point x="541" y="670" type="line"/>
      <point x="541" y="750" type="line"/>
      <point x="75" y="750" type="line"/>
      <point x="75" y="554" type="line"/>
      <point x="155" y="554" type="line"/>
      <point x="155" y="670" type="line"/>
      <point x="438" y="670" type="line"/>
    </contour>
    <contour>
      <point x="347" y="811" type="line"/>
      <point x="436" y="888" type="line"/>
      <point x="423" y="916" type="line"/>
      <point x="341" y="916" type="line"/>
      <point x="297" y="867" type="line"/>
      <point x="254" y="916" type="line"/>
      <point x="172" y="916" type="line"/>
      <point x="159" y="888" type="line"/>
      <point x="248" y="811" type="line"/>
    </contour>
  </outline>
</glyph>
<glyph name="zcaron" format="1">
  <advance width="596"/>
  <unicode hex="017E"/>
  <outline>
    <contour>
      <point x="55" y="80" type="line" name="hr00"/>
      <point x="55" y="0" type="line"/>
      <point x="541" y="0" type="line"/>
      <point x="541" y="196" type="line"/>
      <point x="461" y="196" type="line"/>
      <point x="461" y="80" type="line"/>
      <point x="159" y="80" type="line"/>
      <point x="541" y="570" type="line"/>
      <point x="541" y="650" type="line"/>
      <point x="75" y="650" type="line"/>
      <point x="75" y="454" type="line"/>
      <point x="155" y="454" type="line"/>
      <point x="155" y="570" type="line"/>
      <point x="438" y="570" type="line"/>
    </contour>
    <contour>
      <point x="347" y="711" type="line"/>
      <point x="436" y="788" type="line"/>
      <point x="423" y="816" type="line"/>
      <point x="341" y="816" type="line"/>
      <point x="297" y="767" type="line"/>
      <point x="254" y="816" type="line"/>
      <point x="172" y="816" type="line"/>
      <point x="159" y="788" type="line"/>
      <point x="248" y="711" type="line"/>
    </contour>
  </outline>
</glyph>
<glyph name="florin" format="1">
  <advance width="650"/>
  <unicode hex="0192"/>
  <outline>
    <contour>
      <point x="258" y="-178" type="line" name="hr00"/>
      <point x="341" y="10" type="line"/>
      <point x="341" y="334" type="line"/>
      <point x="486" y="334" type="line"/>
      <point x="486" y="404" type="line"/>
      <point x="341" y="404" type="line"/>
      <point x="341" y="611" type="line"/>
      <point x="393" y="664" type="line"/>
      <point x="486" y="664" type="line"/>
      <point x="546" y="603" type="line"/>
      <point x="607" y="664" type="line"/>
      <point x="525" y="750" type="line"/>
      <point x="353" y="750" type="line"/>
      <point x="249" y="640" type="line"/>
      <point x="249" y="404" type="line"/>
      <point x="117" y="404" type="line"/>
      <point x="117" y="334" type="line"/>
      <point x="249" y="334" type="line"/>
      <point x="249" y="34" type="line"/>
      <point x="172" y="-140" type="line"/>
    </contour>
  </outline>
</glyph>
<glyph name="circumflex" format="1">
  <advance width="397"/>
  <unicode hex="02C6"/>
  <outline>
    <contour>
      <point x="149" y="816" type="line" name="hr00"/>
      <point x="60" y="739" type="line"/>
      <point x="73" y="711" type="line"/>
      <point x="155" y="711" type="line"/>
      <point x="198" y="760" type="line"/>
      <point x="242" y="711" type="line"/>
      <point x="324" y="711" type="line"/>
      <point x="337" y="739" type="line"/>
      <point x="248" y="816" type="line"/>
    </contour>
  </outline>
</glyph>
<glyph name="breve" format="1">
  <advance width="357"/>
  <unicode hex="02D8"/>
  <outline>
    <contour>
      <point x="139" y="772" type="line" name="hr00"/>
      <point x="139" y="816" type="line"/>
      <point x="60" y="816" type="line"/>
      <point x="60" y="748" type="line"/>
      <point x="95" y="711" type="line"/>
      <point x="262" y="711" type="line"/>
      <point x="297" y="748" type="line"/>
      <point x="297" y="816" type="line"/>
      <point x="218" y="816" type="line"/>
      <point x="218" y="772" type="line"/>
    </contour>
  </outline>
</glyph>
<glyph name="ring" format="1">
  <advance width="257"/>
  <unicode hex="02DA"/>
  <outline>
    <contour>
      <point x="81" y="693" type="line" name="hr00"/>
      <point x="176" y="693" type="line"/>
      <point x="215" y="734" type="line"/>
      <point x="215" y="820" type="line"/>
      <point x="176" y="861" type="line"/>
      <point x="81" y="861" type="line"/>
      <point x="42" y="820" type="line"/>
      <point x="42" y="734" type="line"/>
    </contour>
    <contour>
      <point x="94" y="742" type="line"/>
      <point x="94" y="812" type="line"/>
      <point x="163" y="812" type="line"/>
      <point x="163" y="742" type="line"/>
    </contour>
  </outline>
</glyph>
<glyph name="ogonek" format="1">
  <advance width="406"/>
  <unicode hex="02DB"/>
  <outline>
    <contour>
      <point x="100" y="-98" type="line" name="hr00"/>
      <point x="171" y="-173" type="line"/>
      <point x="269" y="-173" type="line"/>
      <point x="340" y="-93" type="line"/>
      <point x="291" y="-50" type="line"/>
      <point x="237" y="-110" type="line"/>
      <point x="209" y="-110" type="line"/>
      <point x="165" y="-64" type="line"/>
      <point x="221" y="0" type="line"/>
      <point x="133" y="0" type="line"/>
      <point x="100" y="-38" type="line"/>
    </contour>
  </outline>
</glyph>
<glyph name="tilde" format="1">
  <advance width="388"/>
  <unicode hex="02DC"/>
  <outline>
    <contour>
      <point x="265" y="711" type="line" name="hr00"/>
      <point x="343" y="788" type="line"/>
      <point x="330" y="816" type="line"/>
      <point x="258" y="816" type="line"/>
      <point x="226" y="788" type="line"/>
      <point x="169" y="816" type="line"/>
      <point x="143" y="816" type="line"/>
      <point x="65" y="739" type="line"/>
      <point x="78" y="711" type="line"/>
      <point x="150" y="711" type="line"/>
      <point x="182" y="739" type="line"/>
      <point x="239" y="711" type="line"/>
    </contour>
  </outline>
</glyph>
<glyph name="endash" format="1">
  <advance width="601"/>
  <unicode hex="2013"/>
  <outline>
    <contour>
      <point x="100" y="415" type="line" name="hr00"/>
      <point x="100" y="335" type="line"/>
      <point x="501" y="335" type="line"/>
      <point x="501" y="415" type="line"/>
    </contour>
  </outline>
</glyph>
<glyph name="emdash" format="1">
  <advance width="721"/>
  <unicode hex="2014"/>
  <outline>
    <contour>
      <point x="100" y="415" type="line" name="hr00"/>
      <point x="100" y="335" type="line"/>
      <point x="621" y="335" type="line"/>
      <point x="621" y="415" type="line"/>
    </contour>
  </outline>
</glyph>
<glyph name="quoteleft" format="1">
  <advance width="240"/>
  <unicode hex="2018"/>
  <outline>
    <contour>
      <point x="170" y="550" type="line" name="hr00"/>
      <point x="170" y="800" type="line"/>
      <point x="130" y="800" type="line"/>
      <point x="70" y="640" type="line"/>
      <point x="70" y="550" type="line"/>
    </contour>
  </outline>
</glyph>
<glyph name="quotedblbase" format="1">
  <advance width="360"/>
  <unicode hex="201E"/>
  <outline>
    <contour>
      <point x="210" y="120" type="line" name="hr00"/>
      <point x="210" y="-130" type="line"/>
      <point x="250" y="-130" type="line"/>
      <point x="310" y="30" type="line"/>
      <point x="310" y="120" type="line"/>
    </contour>
    <contour>
      <point x="50" y="120" type="line"/>
      <point x="50" y="-130" type="line"/>
      <point x="90" y="-130" type="line"/>
      <point x="150" y="30" type="line"/>
      <point x="150" y="120" type="line"/>
    </contour>
  </outline>
</glyph>
<glyph name="daggerdbl" format="1">
  <advance width="560"/>
  <unicode hex="2021"/>
  <outline>
    <contour>
      <point x="50" y="500" type="line" name="hr00"/>
      <point x="150" y="500" type="line"/>
      <point x="255" y="524" type="line"/>
      <point x="230" y="400" type="line"/>
      <point x="230" y="300" type="line"/>
      <point x="255" y="176" type="line"/>
      <point x="150" y="200" type="line"/>
      <point x="50" y="200" type="line"/>
      <point x="50" y="100" type="line"/>
      <point x="150" y="100" type="line"/>
      <point x="255" y="124" type="line"/>
      <point x="230" y="0" type="line"/>
      <point x="230" y="-100" type="line"/>
      <point x="330" y="-100" type="line"/>
      <point x="330" y="0" type="line"/>
      <point x="305" y="124" type="line"/>
      <point x="410" y="100" type="line"/>
      <point x="510" y="100" type="line"/>
      <point x="510" y="200" type="line"/>
      <point x="410" y="200" type="line"/>
      <point x="305" y="176" type="line"/>
      <point x="330" y="300" type="line"/>
      <point x="330" y="400" type="line"/>
      <point x="305" y="524" type="line"/>
      <point x="410" y="500" type="line"/>
      <point x="510" y="500" type="line"/>
      <point x="510" y="600" type="line"/>
      <point x="410" y="600" type="line"/>
      <point x="305" y="576" type="line"/>
      <point x="330" y="700" type="line"/>
      <point x="330" y="800" type="line"/>
      <point x="230" y="800" type="line"/>
      <point x="230" y="700" type="line"/>
      <point x="255" y="576" type="line"/>
      <point x="150" y="600" type="line"/>
      <point x="50" y="600" type="line"/>
    </contour>
  </outline>
</glyph>
<glyph name="ellipsis" format="1">
  <advance width="600"/>
  <unicode hex="2026"/>
  <outline>
    <contour>
      <point x="50" y="120" type="line" name="hr00"/>
      <point x="50" y="0" type="line"/>
      <point x="150" y="0" type="line"/>
      <point x="150" y="120" type="line"/>
    </contour>
    <contour>
      <point x="250" y="120" type="line"/>
      <point x="250" y="0" type="line"/>
      <point x="350" y="0" type="line"/>
      <point x="350" y="120" type="line"/>
    </contour>
    <contour>
      <point x="450" y="120" type="line"/>
      <point x="450" y="0" type="line"/>
      <point x="550" y="0" type="line"/>
      <point x="550" y="120" type="line"/>
    </contour>
  </outline>
</glyph>
<glyph name="guilsinglleft" format="1">
  <advance width="269"/>
  <unicode hex="2039"/>
  <outline>
    <contour>
      <point x="122" y="375" type="line" name="hr00"/>
      <point x="234" y="529" type="line"/>
      <point x="165" y="582" type="line"/>
      <point x="35" y="408" type="line"/>
      <point x="35" y="342" type="line"/>
      <point x="165" y="168" type="line"/>
      <point x="234" y="221" type="line"/>
    </contour>
  </outline>
</glyph>
<glyph name="lira" format="1">
  <advance width="650"/>
  <unicode hex="20A4"/>
  <outline>
    <contour>
      <point x="159" y="192" type="line" name="hr00"/>
      <point x="109" y="80" type="line"/>
      <point x="79" y="80" type="line"/>
      <point x="79" y="0" type="line"/>
      <point x="565" y="0" type="line"/>
      <point x="565" y="156" type="line"/>
      <point x="485" y="156" type="line"/>
      <point x="485" y="80" type="line"/>
      <point x="203" y="80" type="line"/>
      <point x="251" y="188" type="line"/>
      <point x="251" y="611" type="line"/>
      <point x="303" y="664" type="line"/>
      <point x="436" y="664" type="line"/>
      <point x="496" y="603" type="line"/>
      <point x="557" y="664" type="line"/>
      <point x="475" y="750" type="line"/>
      <point x="263" y="750" type="line"/>
      <point x="159" y="640" type="line"/>
    </contour>
    <contour>
      <point x="101" y="500" type="line"/>
      <point x="101" y="430" type="line"/>
      <point x="527" y="430" type="line"/>
      <point x="527" y="500" type="line"/>
    </contour>
    <contour>
      <point x="101" y="320" type="line"/>
      <point x="101" y="250" type="line"/>
      <point x="527" y="250" type="line"/>
      <point x="527" y="320" type="line"/>
    </contour>
  </outline>
</glyph>
<glyph name="Euro" format="1">
  <advance width="650"/>
  <unicode hex="20AC"/>
  <outline>
    <contour>
      <point x="72" y="500" type="line" name="hr00"/>
      <point x="72" y="430" type="line"/>
      <point x="130" y="430" type="line"/>
      <point x="130" y="320" type="line"/>
      <point x="72" y="320" type="line"/>
      <point x="72" y="250" type="line"/>
      <point x="130" y="250" type="line"/>
      <point x="130" y="110" type="line"/>
      <point x="234" y="0" type="line"/>
      <point x="506" y="0" type="line"/>
      <point x="591" y="90" type="line"/>
      <point x="530" y="151" type="line"/>
      <point x="466" y="86" type="line"/>
      <point x="273" y="86" type="line"/>
      <point x="222" y="139" type="line"/>
      <point x="222" y="250" type="line"/>
      <point x="498" y="250" type="line"/>
      <point x="498" y="320" type="line"/>
      <point x="222" y="320" type="line"/>
      <point x="222" y="430" type="line"/>
      <point x="498" y="430" type="line"/>
      <point x="498" y="500" type="line"/>
      <point x="222" y="500" type="line"/>
      <point x="222" y="611" type="line"/>
      <point x="274" y="664" type="line"/>
      <point x="467" y="664" type="line"/>
      <point x="530" y="600" type="line"/>
      <point x="591" y="661" type="line"/>
      <point x="506" y="750" type="line"/>
      <point x="234" y="750" type="line"/>
      <point x="130" y="640" type="line"/>
      <point x="130" y="500" type="line"/>
    </contour>
  </outline>
</glyph>
<glyph name="trademark" format="1">
  <advance width="923"/>
  <unicode hex="2122"/>
  <outline>
    <contour>
      <point x="731" y="452" type="line" name="hr00"/>
      <point x="731" y="388" type="line"/>
      <point x="873" y="388" type="line"/>
      <point x="873" y="452" type="line"/>
      <point x="833" y="452" type="line"/>
      <point x="833" y="736" type="line"/>
      <point x="873" y="736" type="line"/>
      <point x="873" y="800" type="line"/>
      <point x="749" y="800" type="line"/>
      <point x="636" y="545" type="line"/>
      <point x="522" y="800" type="line"/>
      <point x="400" y="800" type="line"/>
      <point x="400" y="736" type="line"/>
      <point x="441" y="736" type="line"/>
      <point x="441" y="452" type="line"/>
      <point x="400" y="452" type="line"/>
      <point x="400" y="388" type="line"/>
      <point x="542" y="388" type="line"/>
      <point x="542" y="452" type="line"/>
      <point x="511" y="452" type="line"/>
      <point x="511" y="670" type="line"/>
      <point x="604" y="454" type="line"/>
      <point x="669" y="454" type="line"/>
      <point x="761" y="670" type="line"/>
      <point x="761" y="452" type="line"/>
    </contour>
    <contour>
      <point x="288" y="388" type="line"/>
      <point x="288" y="452" type="line"/>
      <point x="230" y="452" type="line"/>
      <point x="230" y="736" type="line"/>
      <point x="298" y="736" type="line"/>
      <point x="298" y="668" type="line"/>
      <point x="360" y="668" type="line"/>
      <point x="360" y="800" type="line"/>
      <point x="30" y="800" type="line"/>
      <point x="30" y="668" type="line"/>
      <point x="91" y="668" type="line"/>
      <point x="91" y="736" type="line"/>
      <point x="159" y="736" type="line"/>
      <point x="159" y="452" type="line"/>
      <point x="101" y="452" type="line"/>
      <point x="101" y="388" type="line"/>
    </contour>
  </outline>
</glyph>
<glyph name="Delta" format="1">
  <advance width="707"/>
  <unicode hex="2206"/>
  <outline>
    <contour>
      <point x="40" y="80" type="line" name="hr00"/>
      <point x="40" y="0" type="line"/>
      <point x="667" y="0" type="line"/>
      <point x="667" y="80" type="line"/>
      <point x="417" y="750" type="line"/>
      <point x="290" y="750" type="line"/>
    </contour>
    <contour>
      <point x="575" y="80" type="line"/>
      <point x="132" y="80" type="line"/>
      <point x="353" y="673" type="line"/>
    </contour>
  </outline>
</glyph>
<glyph name="radical" format="1">
  <advance width="622"/>
  <unicode hex="221A"/>
  <outline>
    <contour>
      <point x="120" y="311" type="line" name="hr00"/>
      <point x="40" y="282" type="line"/>
      <point x="180" y="-100" type="line"/>
      <point x="319" y="-100" type="line"/>
      <point x="532" y="780" type="line"/>
      <point x="672" y="780" type="line"/>
      <point x="672" y="850" type="line"/>
      <point x="459" y="850" type="line"/>
      <point x="245" y="-32" type="line"/>
    </contour>
  </outline>
</glyph>
<glyph name="infinity" format="1">
  <advance width="850"/>
  <unicode hex="221E"/>
  <outline>
    <contour>
      <point x="503" y="150" type="line" name="hr00"/>
      <point x="690" y="150" type="line"/>
      <point x="800" y="254" type="line"/>
      <point x="800" y="496" type="line"/>
      <point x="690" y="600" type="line"/>
      <point x="503" y="600" type="line"/>
      <point x="419" y="457" type="line"/>
      <point x="336" y="600" type="line"/>
      <point x="160" y="600" type="line"/>
      <point x="50" y="496" type="line"/>
      <point x="50" y="254" type="line"/>
      <point x="160" y="150" type="line"/>
      <point x="336" y="150" type="line"/>
      <point x="419" y="292" type="line"/>
    </contour>
    <contour>
      <point x="552" y="232" type="line"/>
      <point x="468" y="375" type="line"/>
      <point x="552" y="518" type="line"/>
      <point x="661" y="518" type="line"/>
      <point x="714" y="467" type="line"/>
      <point x="714" y="284" type="line"/>
      <point x="661" y="232" type="line"/>
    </contour>
    <contour>
      <point x="287" y="518" type="line"/>
      <point x="371" y="375" type="line"/>
      <point x="287" y="232" type="line"/>
      <point x="189" y="232" type="line"/>
      <point x="136" y="284" type="line"/>
      <point x="136" y="466" type="line"/>
      <point x="189" y="518" type="line"/>
    </contour>
  </outline>
</glyph>
<glyph name="integral" format="1">
  <advance width="382"/>
  <unicode hex="222B"/>
  <outline>
    <contour>
      <point x="237" y="697" type="line" name="hr00"/>
      <point x="289" y="750" type="line"/>
      <point x="382" y="750" type="line"/>
      <point x="382" y="836" type="line"/>
      <point x="249" y="836" type="line"/>
      <point x="145" y="726" type="line"/>
      <point x="145" y="-47" type="line"/>
      <point x="93" y="-100" type="line"/>
      <point x="0" y="-100" type="line"/>
      <point x="0" y="-186" type="line"/>
      <point x="133" y="-186" type="line"/>
      <point x="237" y="-76" type="line"/>
    </contour>
  </outline>
</glyph>
<glyph name="approxequal" format="1">
  <advance width="650"/>
  <unicode hex="2248"/>
  <outline>
    <contour>
      <point x="115" y="525" type="curve"/>
      <point x="115" y="445" type="line"/>
      <point x="141" y="417" smooth="yes"/>
      <point x="176" y="407" smooth="yes"/>
      <point x="212" y="407" type="curve" smooth="yes"/>
      <point x="299" y="407" smooth="yes"/>
      <point x="346" y="480" smooth="yes"/>
      <point x="432" y="480" type="curve" smooth="yes" name="hr01"/>
      <point x="469" y="480"/>
      <point x="506" y="468"/>
      <point x="535" y="445" type="curve"/>
      <point x="535" y="525" type="line"/>
      <point x="505" y="548" smooth="yes"/>
      <point x="467" y="560" smooth="yes"/>
      <point x="429" y="560" type="curve" smooth="yes"/>
      <point x="345" y="560" smooth="yes"/>
      <point x="297" y="487" smooth="yes"/>
      <point x="212" y="487" type="curve" smooth="yes" name="hr02"/>
      <point x="176" y="487"/>
      <point x="140" y="498"/>
    </contour>
    <contour>
      <point x="115" y="305" type="curve"/>
      <point x="115" y="225" type="line"/>
      <point x="140" y="196" smooth="yes"/>
      <point x="176" y="186" smooth="yes"/>
      <point x="213" y="186" type="curve" smooth="yes"/>
      <point x="300" y="186" smooth="yes"/>
      <point x="347" y="265" smooth="yes"/>
      <point x="432" y="265" type="curve" smooth="yes"/>
      <point x="469" y="265"/>
      <point x="507" y="251"/>
      <point x="535" y="225" type="curve"/>
      <point x="535" y="305" type="line"/>
      <point x="506" y="331" smooth="yes"/>
      <point x="468" y="344" smooth="yes"/>
      <point x="430" y="344" type="curve" smooth="yes" name="hr03"/>
      <point x="345" y="344" smooth="yes"/>
      <point x="299" y="265" smooth="yes"/>
      <point x="212" y="265" type="curve" smooth="yes"/>
      <point x="176" y="265"/>
      <point x="140" y="278"/>
    </contour>
  </outline>
</glyph>
<glyph name="lessequal" format="1">
  <advance width="650"/>
  <unicode hex="2264"/>
  <outline>
    <contour>
      <point x="115" y="415" type="line" name="hr00"/>
      <point x="115" y="335" type="line"/>
      <point x="535" y="135" type="line"/>
      <point x="535" y="215" type="line"/>
      <point x="199" y="375" type="line"/>
      <point x="535" y="535" type="line"/>
      <point x="535" y="615" type="line"/>
    </contour>
    <contour>
      <point x="115" y="80" type="line"/>
      <point x="115" y="0" type="line"/>
      <point x="535" y="0" type="line"/>
      <point x="535" y="80" type="line"/>
    </contour>
  </outline>
</glyph>
<glyph name="lozenge" format="1">
  <advance width="707"/>
  <unicode hex="25CA"/>
  <outline>
    <contour>
      <point x="417" y="836" type="line" name="hr00"/>
      <point x="290" y="836" type="line"/>
      <point x="40" y="325" type="line"/>
      <point x="290" y="-186" type="line"/>
      <point x="417" y="-186" type="line"/>
      <point x="667" y="325" type="line"/>
    </contour>
    <contour>
      <point x="132" y="325" type="line"/>
      <point x="353" y="777" type="line"/>
      <point x="575" y="325" type="line"/>
      <point x="353" y="-127" type="line"/>
    </contour>
  </outline>
</glyph>
<glyph name="commaaccent" format="1">
  <advance width="200"/>
  <outline>
    <contour>
      <point x="55" y="-70" type="line" name="hr00"/>
      <point x="55" y="-280" type="line"/>
      <point x="85" y="-280" type="line"/>
      <point x="145" y="-160" type="line"/>
      <point x="145" y="-70" type="line"/>
    </contour>
  </outline>
</glyph>
<glyph name="ringacute" format="1">
  <advance width="257"/>
  <outline>
    <contour>
      <point x="42" y="820" type="line" name="hr00"/>
      <point x="42" y="734" type="line"/>
      <point x="81" y="693" type="line"/>
      <point x="176" y="693" type="line"/>
      <point x="215" y="734" type="line"/>
      <point x="215" y="840" type="line"/>
      <point x="186" y="861" type="line"/>
      <point x="81" y="861" type="line"/>
    </contour>
    <contour>
      <point x="94" y="742" type="line"/>
      <point x="94" y="812" type="line"/>
      <point x="163" y="812" type="line"/>
      <point x="163" y="742" type="line"/>
    </contour>
    <contour>
      <point x="246" y="923" type="line"/>
      <point x="158" y="839" type="line"/>
      <point x="175" y="809" type="line"/>
      <point x="242" y="836" type="line"/>
      <point x="285" y="874" type="line"/>
    </contour>
  </outline>
</glyph>
